<svg id="Layer_1" data-name="Layer 1" xmlns="http://www.w3.org/2000/svg" xmlns:xlink="http://www.w3.org/1999/xlink" viewBox="0 0 2057.03 1046.69"><defs><clipPath id="clip-path"><polygon points="1993.23 25.98 1306.22 25.98 1306.22 422.31 1475.55 622.99 1611.02 971.66 2006.36 1012.52 1993.23 25.98" fill="none"/></clipPath><clipPath id="clip-path-2"><polygon points="218.63 25.98 420.18 68.3 475.17 300.19 729.73 883.09 717.81 1068.33 12.69 1088.97 -35.15 73.39 218.63 25.98" fill="none"/></clipPath><clipPath id="clip-path-3"><rect x="1058.17" y="874.94" width="82.84" height="82.84" fill="none"/></clipPath></defs><rect width="2057.03" height="1046.69" fill="#212737"/><g clip-path="url(#clip-path)"><image width="2048" height="2048" transform="matrix(-0.64, 0, 0, 0.54, 2006.36, -88)" xlink:href="banner-svg-graphic.jpg"/></g><g clip-path="url(#clip-path-2)"><image width="2048" height="2048" transform="matrix(-0.54, 0.03, 0.03, 0.56, 1116.19, -125.21)" xlink:href="banner-svg-graphic.jpg"/></g><g id="tzKWiM.tif"><path d="M250.48,419.76a55.06,55.06,0,0,1-2.56-11.57c-.14-1.19-.11-1.2-1.27-1.14a43,43,0,0,1-12.6-.95,17.14,17.14,0,0,1-7.06-3.26,9,9,0,0,1-3.16-9.66,20.36,20.36,0,0,1,4.1-7.86,48.54,48.54,0,0,1,8.52-8.31c.81-.65.8-.64.24-1.56a49.54,49.54,0,0,1-5.26-11.07,22.82,22.82,0,0,1-1.21-7.83c.2-5,3.27-8.44,8-9.14a25.88,25.88,0,0,1,11.81,1.31c2.18.7,4.32,1.59,6.45,2.46.63.26.87.11,1.14-.48a49.22,49.22,0,0,1,6-9.79,21.51,21.51,0,0,1,6.5-5.71,8.46,8.46,0,0,1,11.1,2.3,25.16,25.16,0,0,1,4.37,8.71,53.14,53.14,0,0,1,2.05,10.47c.07.66.45.59.86.59,2.26,0,4.53-.1,6.78,0a26.56,26.56,0,0,1,11,2.68,11,11,0,0,1,4.42,3.93,9.44,9.44,0,0,1,.73,8.14,23.88,23.88,0,0,1-5,8.34,50.47,50.47,0,0,1-7.58,7c-.55.42-.5.68-.18,1.2a45.87,45.87,0,0,1,6.09,13.88,16.49,16.49,0,0,1,.25,7.36c-.95,4.1-3.66,6.19-7.44,7a20.71,20.71,0,0,1-10-.67c-2.91-.86-5.74-2-8.59-3.07-.58-.22-.79-.1-1,.43a50.06,50.06,0,0,1-6.1,9.92,22.33,22.33,0,0,1-5.78,5.28c-4.58,2.75-9.19,1.77-12.36-2.64A24.14,24.14,0,0,1,250.48,419.76Zm12.26-52.39c-2.38,1.05-4.8,2.12-7.22,3.15a1.19,1.19,0,0,0-.77,1c-.65,3.36-1.36,6.71-2,10.09-.35,2-.57,4-.79,6a1.39,1.39,0,0,0,.39.95c1.48,1.5,2.93,3,4.5,4.4,2.46,2.15,5,4.19,7.53,6.25a1.08,1.08,0,0,0,.89.15c4.3-1.55,8.61-3.11,12.9-4.72,2.44-.92,2.51-.95,3-3.57.82-4.55,1.52-9.11,2.31-13.66a2,2,0,0,0-.65-2c-1.38-1.25-2.67-2.61-4.08-3.83-2.4-2.09-4.87-4.11-7.3-6.16A1.36,1.36,0,0,0,270,365C267.61,365.84,265.19,366.59,262.74,367.37ZM239.61,380a43.88,43.88,0,0,0-8.67,8.31,17,17,0,0,0-3,5.76c-.64,2.38-.08,4.23,1.92,5.52a16.73,16.73,0,0,0,3.93,1.89c4.28,1.39,8.71,1.42,13.14,1.24.43,0,.56-.19.54-.64-.05-1.46-.1-2.93-.06-4.39,0-2.33.15-4.66.28-7a2,2,0,0,0-.53-1.65c-1-1.05-2-2.12-2.91-3.25C242.66,383.92,241.16,382,239.61,380Zm56.31,4.3a3.62,3.62,0,0,0,.48-.28,47.62,47.62,0,0,0,7.49-7.13,18.92,18.92,0,0,0,3.64-6.23c.58-1.82.67-3.65-.78-5.05a10.49,10.49,0,0,0-3.1-2.12c-4.85-2.09-10-2.16-15.09-1.88-.16,0-.42.39-.43.61q-.13,5.79-.2,11.58a2.1,2.1,0,0,0,.45,1.25c1.55,1.89,3.17,3.72,4.73,5.61C294.07,381.83,295,383.06,295.92,384.31Zm-60.4-20.66a53.2,53.2,0,0,0,4.6,9.46c.52.85.49.81,1.34.32q4.62-2.71,9.29-5.36a1.71,1.71,0,0,0,.88-1.08q1.76-5.42,3.59-10.78c.22-.65.1-.91-.47-1.12-2.36-.85-4.67-1.84-7.07-2.55a18.73,18.73,0,0,0-9.19-.78c-2.6.52-4,2.15-4.13,4.93A20.05,20.05,0,0,0,235.52,363.65Zm39,47.28-.66-.4c-3.07-1.94-6.15-3.86-9.19-5.84a1.84,1.84,0,0,0-1.63-.28q-2.6.66-5.22,1.19c-1.94.39-3.9.7-5.9,1,0,.26,0,.5,0,.73a51.3,51.3,0,0,0,1.86,9.37,21.48,21.48,0,0,0,3.13,6.63c1.65,2.25,3.41,3,5.46,2.3a10,10,0,0,0,2.12-1.06,21.46,21.46,0,0,0,5.51-5.8A46.71,46.71,0,0,0,274.54,410.93Zm6.84-64.26c-.22-.62-.39-1.27-.66-1.87a15.28,15.28,0,0,0-3.1-5,4.19,4.19,0,0,0-5.4-.83,19.3,19.3,0,0,0-3.61,2.76,40.46,40.46,0,0,0-7.31,11c-.29.58-.14.79.34,1.09,3.15,2,6.27,4,9.42,5.93a1.93,1.93,0,0,0,1.19.2c.8-.12,1.58-.39,2.38-.55,2.82-.54,5.65-1.06,8.49-1.58.36-.06.55-.17.5-.6A49.44,49.44,0,0,0,281.38,346.67Zm18.78,54.4a54.13,54.13,0,0,0-4.74-9.93c-.37-.61-.63-.7-1.25-.33-3.17,1.87-6.37,3.67-9.54,5.52a1.61,1.61,0,0,0-.62.82c-1.23,3.63-2.41,7.29-3.66,10.92-.23.65-.14.91.45,1.11,2.72.95,5.41,2,8.16,2.85a17.09,17.09,0,0,0,7.25.66,5.92,5.92,0,0,0,3.62-1.52,5.61,5.61,0,0,0,1.39-4.18A19.16,19.16,0,0,0,300.16,401.07Zm-43.77-35.79,9.9-3.74-7.09-4.28Zm36.23,21.57-5.23-6.66c-.63,3.7-1.21,7.17-1.84,10.9Zm-16.54-23.4,7.81,6.93A1.87,1.87,0,0,0,284,370c0-2.42,0-4.84,0-7.26,0-.48-.16-.71-.7-.61-1.5.28-3,.49-4.52.76C277.94,363,277.09,363.23,276.08,363.45ZM251.5,402.38l7.83-1.43v-.25L251.77,394l-.26.09ZM250,373.51l-.17-.19c-2.13,1.29-4.25,2.58-6.36,3.92-.11.07-.12.59,0,.75.81,1.13,1.65,2.23,2.51,3.32.69.86,1.42,1.7,2.24,2.68Zm26.39,33.54,2.82-8.07-9.91,3.74C271.67,404.2,273.91,405.57,276.35,407.05Z" fill="#d2d451"/></g><path d="M1409.38,141.37a1.42,1.42,0,0,0-.39,1.08c1.59,8.74,4.86,16.69,11.65,22.69,7.67,6.77,16.64,8.5,26.45,5.91,8.32-2.21,15.05-7.06,21.07-13.05,5.63-5.6,12.14-9.77,20-11.57s15.2-.47,21.36,5.18c1.44,1.33,3,1.4,4.09.21s.9-2.73-.57-4.08c-6.76-6.22-14.76-8.34-23.72-6.86-9.46,1.55-17.37,6.17-24.15,12.77-4.06,3.95-8.26,7.64-13.36,10.23-11.63,5.9-26.31,3.47-33.53-10.21a44.78,44.78,0,0,1-4.62-16C1412.11,139,1410.72,140.14,1409.38,141.37ZM1468,147.6a1.35,1.35,0,0,0,.36-1.09c-1.2-7.85-3.78-15.13-9.47-20.89-7.39-7.48-16.41-9.84-26.62-7.73-8.91,1.85-16.4,6.39-22.82,12.72-4.27,4.21-8.76,8.12-14.31,10.54-9.49,4.12-18.42,3-26.72-3.09-2-1.5-3.48-1.58-4.54-.17s-.62,2.84,1.36,4.36c9.87,7.58,20.51,8.56,31.82,3.61a52.07,52.07,0,0,0,15.64-11.1c6.28-6.23,13.56-10.69,22.45-12a23.62,23.62,0,0,1,24.91,13.51,40.18,40.18,0,0,1,3.55,15.06C1465.23,149.94,1466.64,148.81,1468,147.6Zm-3.11,17a1.52,1.52,0,0,0-.43,1.19c1.56,8.8,5,16.7,11.74,22.8a26.11,26.11,0,0,0,16.92,6.73c2.4.09,3.91-2,2.71-3.83a3.35,3.35,0,0,0-2.26-1.33c-10.35-.56-16.76-6.43-20.93-15.33a42.7,42.7,0,0,1-3.56-13.88C1467.56,162.23,1466.19,163.36,1464.89,164.57Zm-52.32-40.25a1.29,1.29,0,0,0,.37-1c-1.72-10.91-6-20.3-16.06-26A30.55,30.55,0,0,0,1385,93.66c-1.82-.2-3.11.7-3.31,2.24s.88,2.7,2.69,2.95c8.46,1.17,15.12,5.16,19.44,12.62a35.19,35.19,0,0,1,4.29,14.87c0,.46.07.92.13,1.65C1409.79,126.66,1411.21,125.51,1412.57,124.32Zm19.6,38.76,15.23-36-2.12-.85c-5,11.89-10.06,23.8-15.21,36Zm-42.72-60.41-15.17,35.88,1.8.83,15.12-35.79Zm96.61,83,2.09.63,15.1-35.87-1.89-.9C1496.23,161.69,1491.19,173.58,1486.06,185.71Zm-42.44-23.39L1454.77,136c1-2.27,1-2.27-.77-4-4.51,10.68-9,21.4-13.53,32.07C1442.57,164.4,1442.78,164.3,1443.62,162.32ZM1387.42,139q5.71-13.47,11.41-26.93c1-2.27,1-2.27-.87-3.88q-6.89,16.29-13.76,32.6C1386.42,141.14,1386.55,141.08,1387.42,139Zm102.35,11.48q-5.55,13.17-11.12,26.34c-.91,2.16-.88,2.22.94,3.77l13.57-32.15C1490.77,148.34,1490.65,148.42,1489.77,150.51Zm-56.34-22.92q-5.34,12.66-10.7,25.29c-.88,2.09-.82,2.27.9,3.86l13.3-31.49C1434.4,125.26,1434.41,125.27,1433.43,127.59Zm-32.31,5.3a44,44,0,0,1,3.11-7.36c1.1-2.09.52-4,0-5.84l-7.37,17.61C1398.52,136.39,1400.36,135.33,1401.12,132.89Zm79.46,19.25a6.77,6.77,0,0,0-4.4,4.31c-.91,2.75-2.42,5.3-3.27,8.06-.42,1.39.06,3,.13,4.58l.33-.07Zm-22.85,3.06a25.29,25.29,0,0,1,2.18-5.18c1.13-2.1.5-4,0-6-2.25,5.37-4.49,10.7-6.74,16C1455.12,158.93,1457,157.73,1457.73,155.2Zm-33.41-25.91c-1.51.88-3.26,1.42-4,3.46a35.82,35.82,0,0,1-2.47,5.81,7,7,0,0,0-.16,6.41Z" fill="#d2d451"/><path d="M1413.63,137.64c-1.52,1.33-2.91,2.5-4.25,3.73a1.42,1.42,0,0,0-.39,1.08c1.59,8.74,4.86,16.69,11.65,22.69,7.67,6.77,16.64,8.5,26.45,5.91,8.32-2.21,15.05-7.06,21.07-13.05,5.63-5.6,12.14-9.77,20-11.57s15.2-.47,21.36,5.18c1.44,1.33,3,1.4,4.09.21s.9-2.73-.57-4.08c-6.76-6.22-14.76-8.34-23.72-6.86-9.46,1.55-17.37,6.17-24.15,12.77-4.06,3.95-8.26,7.64-13.36,10.23-11.63,5.9-26.31,3.47-33.53-10.21A44.78,44.78,0,0,1,1413.63,137.64Z" fill="#d2d451"/><path d="M1463.61,151.28c1.62-1.34,3-2.47,4.39-3.68a1.35,1.35,0,0,0,.36-1.09c-1.2-7.85-3.78-15.13-9.47-20.89-7.39-7.48-16.41-9.84-26.62-7.73-8.91,1.85-16.4,6.39-22.82,12.72-4.27,4.21-8.76,8.12-14.31,10.54-9.49,4.12-18.42,3-26.72-3.09-2-1.5-3.48-1.58-4.54-.17s-.62,2.84,1.36,4.36c9.87,7.58,20.51,8.56,31.82,3.61a52.07,52.07,0,0,0,15.64-11.1c6.28-6.23,13.56-10.69,22.45-12a23.62,23.62,0,0,1,24.91,13.51A40.18,40.18,0,0,1,1463.61,151.28Z" fill="#d2d451"/><path d="M1469.08,160.92c-1.52,1.31-2.89,2.44-4.19,3.65a1.52,1.52,0,0,0-.43,1.19c1.56,8.8,5,16.7,11.74,22.8a26.11,26.11,0,0,0,16.92,6.73c2.4.09,3.91-2,2.71-3.83a3.35,3.35,0,0,0-2.26-1.33c-10.35-.56-16.76-6.43-20.93-15.33A42.7,42.7,0,0,1,1469.08,160.92Z" fill="#d2d451"/><path d="M1408.21,128c1.58-1.33,3-2.48,4.36-3.67a1.29,1.29,0,0,0,.37-1c-1.72-10.91-6-20.3-16.06-26A30.55,30.55,0,0,0,1385,93.66c-1.82-.2-3.11.7-3.31,2.24s.88,2.7,2.69,2.95c8.46,1.17,15.12,5.16,19.44,12.62a35.19,35.19,0,0,1,4.29,14.87C1408.12,126.8,1408.15,127.26,1408.21,128Z" fill="#d2d451"/><path d="M1430.07,162.2l2.1.88,15.23-36-2.12-.85C1440.25,138.1,1435.22,150,1430.07,162.2Z" fill="#d2d451"/><path d="M1391.2,103.59l-1.75-.92-15.17,35.88,1.8.83Z" fill="#d2d451"/><path d="M1501.36,149.57c-5.13,12.12-10.17,24-15.3,36.14l2.09.63,15.1-35.87Z" fill="#d2d451"/><path d="M1440.47,164.12c2.1.28,2.31.18,3.15-1.8L1454.77,136c1-2.27,1-2.27-.77-4C1449.49,142.73,1445,153.45,1440.47,164.12Z" fill="#d2d451"/><path d="M1384.2,140.82c2.22.32,2.35.26,3.22-1.79q5.71-13.47,11.41-26.93c1-2.27,1-2.27-.87-3.88Q1391.07,124.51,1384.2,140.82Z" fill="#d2d451"/><path d="M1493.16,148.47c-2.39-.13-2.51-.05-3.39,2q-5.55,13.17-11.12,26.34c-.91,2.16-.88,2.22.94,3.77Z" fill="#d2d451"/><path d="M1436.93,125.25c-2.53,0-2.52,0-3.5,2.34q-5.34,12.66-10.7,25.29c-.88,2.09-.82,2.27.9,3.86Z" fill="#d2d451"/><path d="M1396.86,137.3c1.66-.91,3.5-2,4.26-4.41a44,44,0,0,1,3.11-7.36c1.1-2.09.52-4,0-5.84Z" fill="#d2d451"/><path d="M1473.37,169l7.21-16.88a6.77,6.77,0,0,0-4.4,4.31c-.91,2.75-2.42,5.3-3.27,8.06-.42,1.39.06,3,.13,4.58Z" fill="#d2d451"/><path d="M1453.14,160c2-1.09,3.87-2.29,4.59-4.82a25.29,25.29,0,0,1,2.18-5.18c1.13-2.1.5-4,0-6C1457.63,149.35,1455.39,154.68,1453.14,160Z" fill="#d2d451"/><path d="M1417.74,145l6.58-15.68c-1.51.88-3.26,1.42-4,3.46a35.82,35.82,0,0,1-2.47,5.81A7,7,0,0,0,1417.74,145Z" fill="#d2d451"/><path d="M1481.61,903.52c-1.47-.48-2.82-.95-3.6-2.42-2.51-4.72-2.17-6.36,2.08-9.41a18.24,18.24,0,0,0-2.42-31.17c-2.16-1.1-4.58-1.31-6.78-2.23-3-3.51-4-8.11.7-11.13a8.63,8.63,0,0,0,3.32-3.65c4.61-3.51,9.27-2.71,12.35,2.16,2.9,4.59,6.91,6.63,12.36,5.71,6.48-1.11,10-6.48,9.28-13.51-.52-5.13-7.76-10.38-12.75-9.38a13.11,13.11,0,0,0-7.58,4.51c-3.9,4.54-6.78,5.09-12.06,2.35a.57.57,0,0,0-.33-.28c-.19-.23-.37-.47-.56-.71l-.19.07.19-.07c-.43-.67-.84-1.35-1.29-2-3.86-5.7-10.71-7.31-16.47-3.8-4.27,2.6-5.59,6.65-5.13,11.37a9.72,9.72,0,0,0,6.23,8.49c3.23,1.39,4.77,4,5.15,7.4.36,3.19-2.18,3.87-4.18,5.07s-4.12,2.36-5.14,4.46c-2.17,4.5-5.13,6.78-10.21,4.57a1,1,0,0,0-.53,0c-1.7.39-2.55-.46-3.21-1.94a13.79,13.79,0,0,1-.91-3.57,17.31,17.31,0,0,0-6-10.41c-2.81-2.49-6.32-3.39-9.87-4.17-1.09-.24-2.28-.26-3-1.46a7.84,7.84,0,0,1,1.63-9.4c3.44-3.19,5.78-6.88,4.34-11.9-1.31-4.58-4.21-7.18-8.93-8.39a11.52,11.52,0,0,0-13.87,8.44c-1.51,5.93,2.56,12.22,7,13.37,4.61,1.2,4.22,5,4.92,8.1.51,2.3-2,2.58-3.41,3.42-9,5.48-12,15.76-7.06,24.94,2.63,4.91,2.63,4.91-1,9a4.53,4.53,0,0,1-4.88,1.63c-8.5-1.89-13.47,4.82-13.54,11.87,0,4.55,2.85,8,7.1,10,4.91,2.25,9.26,1.07,13-2.56,3.5-3.4,4.52-7.4,2.43-12-.65-1.43-1.32-3-.68-4.56,1.77-4.42,4.14-5.59,8.78-4.45,8.59,2.1,15,0,19.78-7.22,2.33-3.56,4.73-4.53,8.75-3.59,4.67,1.08,4.58.84,5.66,5.61,1.15,5.07,3.5,9.42,8.47,11.8,2.44,2,5.58,2.09,8.41,3,4.45,1.45,5.82,4.83,3.51,8.91-.77,1.38-1.87,2.57-2.72,3.91a10.84,10.84,0,0,0-.26,12c2.35,4,5.73,6.19,10.49,5.8s8.41-2.47,10.21-7.16C1491.91,912.09,1488.88,905.88,1481.61,903.52Zm15-59.3a4.53,4.53,0,0,1,5.51-2.8,1.4,1.4,0,0,1,1.05,2c-.66,2.05-3.49,3.7-5.44,3.21C1496.28,846.27,1496.19,845.37,1496.57,844.22Zm-80.73-7.88c-1.24-.24-1.64-.86-1.21-1.93.64-2.61,2.77-4.12,5-3.64,1.32.28,2.07,1.05,1.72,2.4C1420.89,835,1417.68,836.69,1415.84,836.34Zm-17.55,69c-1.38-.14-1.51-1-1.11-2.23a4.11,4.11,0,0,1,5-2.76c1.14.29,2,.76,1.58,2.17C1403.17,904.29,1400.21,905.84,1398.29,905.3Zm22.08-23.6a2,2,0,0,1-1.58-2.37c.13-1.47,1.24-2.06,2.59-2.07a9.22,9.22,0,0,0,8.81-5.21c.73-1.44,1.64-.93,2.82-.67,1.37.11,1.61.92,1.25,2.35C1433.11,878.21,1424.86,883,1420.37,881.7ZM1469,843.13a5.67,5.67,0,0,1-4.82,1.71c-1.78-.14-.37-1.44-.6-2.06a4,4,0,0,1,3.55-3.24c1-.15,2.27-.46,2.81.75S1469.69,842.35,1469,843.13Zm-2,46.78c-1.29-2.19-.93-3.19,1.35-3.7.67-.15,1.36-.22,2-.32,3.09-.59,5.56-2,7-5,.71-1.47,1.9-1.71,3.32-1.13,1.77.71,1.27,2.06.87,3.33C1480.36,886.94,1471.5,892.33,1467,889.91Zm11.66,31.29c-1.29-.32-1.33-1.2-1.06-2.25a4.29,4.29,0,0,1,5.3-3.06c1.13.26,1.7.86,1.32,2.08C1483.65,919.8,1480.46,921.65,1478.65,921.2Z" fill="#d2d451"/><path d="M1454.52,903.91c.1-.93.23-1.75-.7-2.31l-.26.07c-1.41.36-2.88,1.34-4.24.14-.63-.56-.28-1.46.11-2.22.93-1.76,2.2-3,4.3-3a9.13,9.13,0,0,1,2.28.63l1-.66a39.59,39.59,0,0,1-8.6-10.77c-.74-1.43-2.13-1.13-3.47-.45-4.24,2.16-6.05,6-6.16,10.32a11.22,11.22,0,0,0,5.86,10.22c3.57,2.1,8.58,1.9,11.11-.32C1454.19,905.82,1454.43,904.67,1454.52,903.91Z" fill="#d2d451"/><path d="M474.45,485.4H426.89L429.2,474,456,453.17a49.5,49.5,0,0,0,10.13-9.87,23.43,23.43,0,0,0,4.15-8.61,13.32,13.32,0,0,0,.32-2c.07-.77.1-1.47.1-2.1a10.58,10.58,0,0,0-.58-3.41,9.7,9.7,0,0,0-1.73-3.15,8.14,8.14,0,0,0-3-2.26,10.69,10.69,0,0,0-4.46-.84,13,13,0,0,0-9.09,3.2,23.5,23.5,0,0,0-5.72,8.56l-9.76-4.09a41.88,41.88,0,0,1,4.2-7.2,26.21,26.21,0,0,1,5.51-5.61,25,25,0,0,1,7-3.63,27.63,27.63,0,0,1,8.82-1.31,25.65,25.65,0,0,1,8.77,1.42,18.83,18.83,0,0,1,6.67,4,17.49,17.49,0,0,1,4.2,6.09A19.51,19.51,0,0,1,483,430a24.17,24.17,0,0,1-1.53,8.72,30.13,30.13,0,0,1-4.3,7.61,53.94,53.94,0,0,1-6.72,7.14q-3.95,3.52-8.87,7.19l-19.85,14.91h34.76Z" fill="#fff" stroke="#fff" stroke-miterlimit="10" stroke-width="1.42"/><path d="M518.55,486.66a20.74,20.74,0,0,1-9.76-2.1,17.74,17.74,0,0,1-6.46-5.67,23.81,23.81,0,0,1-3.57-8.24,42.84,42.84,0,0,1-1.1-9.92,78.84,78.84,0,0,1,2-17.7A60.55,60.55,0,0,1,505.79,427,35.9,35.9,0,0,1,516,415.31a23.75,23.75,0,0,1,14.33-4.46,20.78,20.78,0,0,1,9.77,2.1,17.82,17.82,0,0,1,6.46,5.67,24,24,0,0,1,3.56,8.3,43,43,0,0,1,1.11,9.87,78.76,78.76,0,0,1-2.05,17.69A59.15,59.15,0,0,1,543,470.54a36.63,36.63,0,0,1-10.19,11.66A23.47,23.47,0,0,1,518.55,486.66Zm1.16-9.66a12.15,12.15,0,0,0,6.19-1.57,15.66,15.66,0,0,0,4.83-4.47A27.8,27.8,0,0,0,534.3,464a59.07,59.07,0,0,0,2.42-8.87l2.41-11.86a29.39,29.39,0,0,0,.68-4.47c.11-1.43.16-2.85.16-4.25q0-6.51-2.62-10.29t-8.3-3.78a12.15,12.15,0,0,0-6.19,1.58,15,15,0,0,0-4.78,4.46,28.79,28.79,0,0,0-3.52,6.93,59.09,59.09,0,0,0-2.41,8.87l-2.42,11.87a29.26,29.26,0,0,0-.68,4.46c-.11,1.43-.16,2.85-.16,4.25q0,6.51,2.57,10.29T519.71,477Z" fill="#fff" stroke="#fff" stroke-miterlimit="10" stroke-width="1.42"/><path d="M608.85,485.4H561.29L563.6,474l26.77-20.79a49.5,49.5,0,0,0,10.13-9.87,23.43,23.43,0,0,0,4.15-8.61,13.32,13.32,0,0,0,.32-2c.07-.77.1-1.47.1-2.1a10.84,10.84,0,0,0-.57-3.41,9.92,9.92,0,0,0-1.74-3.15,8.14,8.14,0,0,0-3-2.26,10.69,10.69,0,0,0-4.46-.84,13,13,0,0,0-9.09,3.2,23.5,23.5,0,0,0-5.72,8.56l-9.76-4.09a41.88,41.88,0,0,1,4.2-7.2,26.21,26.21,0,0,1,5.51-5.61,25,25,0,0,1,7-3.63,27.63,27.63,0,0,1,8.82-1.31,25.61,25.61,0,0,1,8.77,1.42,18.74,18.74,0,0,1,6.67,4,17.49,17.49,0,0,1,4.2,6.09,19.51,19.51,0,0,1,1.47,7.61,24.17,24.17,0,0,1-1.53,8.72,30.13,30.13,0,0,1-4.3,7.61,53.29,53.29,0,0,1-6.72,7.14q-3.93,3.52-8.87,7.19l-19.85,14.91h34.76Z" fill="#fff" stroke="#fff" stroke-miterlimit="10" stroke-width="1.42"/><path d="M653,486.66a20.74,20.74,0,0,1-9.76-2.1,17.74,17.74,0,0,1-6.46-5.67,24,24,0,0,1-3.57-8.24,42.84,42.84,0,0,1-1.1-9.92,78.84,78.84,0,0,1,2-17.7A60.22,60.22,0,0,1,640.2,427a35.88,35.88,0,0,1,10.18-11.66,23.77,23.77,0,0,1,14.33-4.46,20.78,20.78,0,0,1,9.77,2.1,17.82,17.82,0,0,1,6.46,5.67,24.25,24.25,0,0,1,3.57,8.3,43.59,43.59,0,0,1,1.1,9.87,78.19,78.19,0,0,1-2.05,17.69,58.82,58.82,0,0,1-6.14,16.06,36.63,36.63,0,0,1-10.19,11.66A23.47,23.47,0,0,1,653,486.66Zm1.16-9.66a12.15,12.15,0,0,0,6.19-1.57,15.66,15.66,0,0,0,4.83-4.47A27.8,27.8,0,0,0,668.7,464a59.07,59.07,0,0,0,2.42-8.87l2.41-11.86a30.75,30.75,0,0,0,.69-4.47c.1-1.43.15-2.85.15-4.25q0-6.51-2.62-10.29t-8.3-3.78a12.15,12.15,0,0,0-6.19,1.58,15.15,15.15,0,0,0-4.78,4.46,29.16,29.16,0,0,0-3.52,6.93,59.09,59.09,0,0,0-2.41,8.87l-2.42,11.87a30.56,30.56,0,0,0-.68,4.46c-.1,1.43-.16,2.85-.16,4.25q0,6.51,2.58,10.29T654.11,477Z" fill="#fff" stroke="#fff" stroke-miterlimit="10" stroke-width="1.42"/><path d="M741.78,485.4l-8.61-73.29h11.45L748,445.19l2.41,28.24h.53l13-27.09,17.43-34.23h12.07L755.22,485.4Z" fill="#fff" stroke="#fff" stroke-miterlimit="10" stroke-width="1.42"/><path d="M802.89,485.4a8.35,8.35,0,0,1-6.09-2,7.07,7.07,0,0,1-2.1-5.3,13.86,13.86,0,0,1,.32-2.62l8.92-44.63h10.92l-9.13,45.47h7L811,485.4ZM811.61,421a6.38,6.38,0,0,1-4.41-1.26,4.11,4.11,0,0,1-1.37-3.15,22.33,22.33,0,0,1,.53-3.68,7.76,7.76,0,0,1,2.2-4q1.68-1.64,5.36-1.63a6.38,6.38,0,0,1,4.41,1.26,4.1,4.1,0,0,1,1.36,3.15,22,22,0,0,1-.52,3.68,7.81,7.81,0,0,1-2.21,4C815.84,420.49,814.06,421,811.61,421Z" fill="#fff" stroke="#fff" stroke-miterlimit="10" stroke-width="1.42"/><path d="M825.68,485.4l10.92-54.6h10.92l-2.31,11.66h.63a28.66,28.66,0,0,1,2.36-4.2,17.24,17.24,0,0,1,3.41-3.73,17.62,17.62,0,0,1,4.57-2.68A15.34,15.34,0,0,1,862,430.8h3l-2.2,10.82h-3.68q-7.24,0-11.23,3.46a16.11,16.11,0,0,0-5.15,9.45L836.6,485.4Z" fill="#fff" stroke="#fff" stroke-miterlimit="10" stroke-width="1.42"/><path d="M884.06,485.4q-5,0-7.4-2.2a7.91,7.91,0,0,1-2.37-6.09c0-.56,0-1.19.11-1.89s.17-1.4.31-2.1l6.62-33.18h-8l1.78-9.14h4.1c2,0,3.41-.42,4.15-1.26a8.68,8.68,0,0,0,1.62-4.09l1.89-9.56h10.19l-2.94,14.91h10.92l-1.79,9.14h-11L885,476.27h10.61l-1.79,9.13Z" fill="#fff" stroke="#fff" stroke-miterlimit="10" stroke-width="1.42"/><path d="M930.68,430.8,924.06,464c-.21,1-.36,2-.47,2.94s-.16,1.86-.16,2.63a9,9,0,0,0,1.58,5.67q1.57,2,5.25,2,5.25,0,9.34-4.62a27.28,27.28,0,0,0,4-6A26.18,26.18,0,0,0,945.9,460l5.88-29.19H962.7l-9.13,45.47h7l-1.78,9.13h-8.4a8,8,0,0,1-5.72-1.94,7,7,0,0,1-2.05-5.3A18.33,18.33,0,0,1,943,475l.21-1.26h-.52a28.09,28.09,0,0,1-7,9.6,14.92,14.92,0,0,1-9.87,3.31q-6.72,0-10.13-3.88T912.2,472a30.53,30.53,0,0,1,.21-3.57c.14-1.19.35-2.48.63-3.88l6.72-33.71Z" fill="#fff" stroke="#fff" stroke-miterlimit="10" stroke-width="1.42"/><path d="M1016.25,485.4a8.49,8.49,0,0,1-5.82-1.89,6.61,6.61,0,0,1-2.16-5.25,12.65,12.65,0,0,1,.32-3l.42-2h-.42a30.93,30.93,0,0,1-7.4,10.08,15.67,15.67,0,0,1-10.35,3.36q-7.56,0-11.65-5.46t-4.1-14.59a53.76,53.76,0,0,1,1.79-13.86,39.66,39.66,0,0,1,5.2-11.87,27.89,27.89,0,0,1,8.24-8.24,19.75,19.75,0,0,1,10.92-3.1,15.48,15.48,0,0,1,9.24,2.78,11.42,11.42,0,0,1,4.72,7.62h.53l1.78-9.14h10.92l-9.13,45.47h7l-1.78,9.13ZM995,477.32a11.79,11.79,0,0,0,5.94-1.47,19.2,19.2,0,0,0,4.67-3.78,24.4,24.4,0,0,0,6-12.18l2.21-11a7.75,7.75,0,0,0-2.1-6.77,10.08,10.08,0,0,0-3.52-2.31,12.71,12.71,0,0,0-4.88-.89,13.12,13.12,0,0,0-9.77,3.72q-3.68,3.74-5.14,11l-1.58,7.66c-.14.84-.26,1.79-.36,2.84a27.27,27.27,0,0,0-.16,2.83,12.29,12.29,0,0,0,2.15,7.51C989.92,476.36,992.1,477.32,995,477.32Z" fill="#fff" stroke="#fff" stroke-miterlimit="10" stroke-width="1.42"/><path d="M1049,485.4a8.35,8.35,0,0,1-6.09-2,7.07,7.07,0,0,1-2.1-5.3,13.86,13.86,0,0,1,.32-2.62l13.54-67.73h10.92l-13.75,68.57h7.56l-1.78,9.13Z" fill="#fff" stroke="#fff" stroke-miterlimit="10" stroke-width="1.42"/><path d="M1124.3,486.66a37.57,37.57,0,0,1-15.38-3,21.46,21.46,0,0,1-10.56-10.05l8.72-6.61a19.13,19.13,0,0,0,7.3,7.35,20.88,20.88,0,0,0,10,2.27q8.19,0,12.5-3.91a12.47,12.47,0,0,0,4.3-9.62,8.53,8.53,0,0,0-2.52-6.5,15.35,15.35,0,0,0-7.45-3.43l-6.09-1.16q-7.87-1.68-12.29-6.24t-4.41-12.43a21.36,21.36,0,0,1,1.84-8.81,20.93,20.93,0,0,1,5.25-7.13,24.64,24.64,0,0,1,8.35-4.77,37.35,37.35,0,0,1,25.62,1.15,25.15,25.15,0,0,1,9.76,7.91l-8.19,7.22a19.14,19.14,0,0,0-6.72-5.92,21.4,21.4,0,0,0-9.87-2q-6.72,0-10.65,3a10,10,0,0,0-3.94,8.41,8.35,8.35,0,0,0,2.41,6.39,15.26,15.26,0,0,0,7.35,3.34l6,1.15q8.08,1.68,12.65,6.29t4.57,12.59a23.52,23.52,0,0,1-1.89,9.28,22.32,22.32,0,0,1-5.57,7.82,28.45,28.45,0,0,1-9,5.4A33.64,33.64,0,0,1,1124.3,486.66Z" fill="#fff" stroke="#fff" stroke-miterlimit="10" stroke-width="1.42"/><path d="M1207.67,430.8h11.65l-35.49,65.42a37.54,37.54,0,0,1-2.88,4.62,15.16,15.16,0,0,1-3.15,3.15,11.58,11.58,0,0,1-3.94,1.83,19.72,19.72,0,0,1-5,.58h-8.3l1.79-9.13h10l5.15-9.56-8.3-56.91h10.71l3.26,24.26,2,20.05h.53l9.55-20.05Z" fill="#fff" stroke="#fff" stroke-miterlimit="10" stroke-width="1.42"/><path d="M1222.05,485.4,1233,430.8h10.92l-2.31,11.66h.53a28.58,28.58,0,0,1,7-9.61,15,15,0,0,1,10-3.31q6,0,9.13,3.41t3.58,9.51h.52a26.8,26.8,0,0,1,7.09-9.56,16,16,0,0,1,10.44-3.36q6.61,0,9.93,3.83t3.31,10.66a39.27,39.27,0,0,1-.95,8.19l-4.83,24H1304l-1.79,9.13h-8.29a8.43,8.43,0,0,1-5.62-1.73,6.28,6.28,0,0,1-2-5.09,10.83,10.83,0,0,1,.32-2.63l4.72-23.73c.21-1.05.38-2.06.53-3a21,21,0,0,0,.21-2.73,8.41,8.41,0,0,0-1.63-5.52c-1.09-1.29-2.78-1.94-5.1-1.94q-4.83,0-8.92,4.62a22.92,22.92,0,0,0-3.88,5.88,28.15,28.15,0,0,0-2.21,6.51l-5.88,29.4h-10.92l6.61-33.07c.21-1.05.39-2.09.53-3.1a21.26,21.26,0,0,0,.21-2.89,8.62,8.62,0,0,0-1.52-5.41q-1.53-1.94-4.89-1.94a10.35,10.35,0,0,0-5,1.26,14.38,14.38,0,0,0-4.09,3.36,29.29,29.29,0,0,0-4.1,6,24.41,24.41,0,0,0-2.31,6.4L1233,485.4Z" fill="#fff" stroke="#fff" stroke-miterlimit="10" stroke-width="1.42"/><path d="M1327.37,430.8h10.92L1335.88,443h.42a30.79,30.79,0,0,1,7.4-10.08,15.62,15.62,0,0,1,10.34-3.36q7.56,0,11.66,5.46t4.09,14.6a53.75,53.75,0,0,1-1.78,13.86,39.85,39.85,0,0,1-5.2,11.86,28,28,0,0,1-8.24,8.24,19.75,19.75,0,0,1-10.92,3.1,15.64,15.64,0,0,1-9.24-2.73,11.27,11.27,0,0,1-4.73-7.66h-.52l-6,30.13h-10.92Zm14.28,46.52a13,13,0,0,0,9.66-3.73q3.68-3.72,5.15-11L1358,455c.14-.84.26-1.77.37-2.78s.16-2,.16-2.89a12.05,12.05,0,0,0-2.21-7.51q-2.2-2.88-6.72-2.88a11.56,11.56,0,0,0-5.83,1.47,17.32,17.32,0,0,0-4.56,3.78,27.2,27.2,0,0,0-3.73,5.46,24.75,24.75,0,0,0-2.26,6.61l-2,10a9,9,0,0,0,1.68,7.92C1334.68,476.25,1337.59,477.32,1341.65,477.32Z" fill="#fff" stroke="#fff" stroke-miterlimit="10" stroke-width="1.42"/><path d="M1403.39,486.66q-9.24,0-14.91-5.77t-5.67-16.8a41.92,41.92,0,0,1,2.1-13.34,35.87,35.87,0,0,1,5.83-11,27.78,27.78,0,0,1,8.87-7.46,23.81,23.81,0,0,1,11.34-2.73q9.24,0,14.91,5.78t5.67,16.8a41.68,41.68,0,0,1-2.1,13.38,36,36,0,0,1-5.83,11,27.75,27.75,0,0,1-8.87,7.45A23.81,23.81,0,0,1,1403.39,486.66Zm.84-9.13a12.37,12.37,0,0,0,9-3.8q3.82-3.81,5.3-11.09l1.79-8.76a13.47,13.47,0,0,0,.31-1.9c.07-.7.11-1.44.11-2.22a11.7,11.7,0,0,0-2.68-8.07q-2.68-3-7.93-3a12.33,12.33,0,0,0-9,3.8q-3.83,3.79-5.3,11.08l-1.78,8.76a15.71,15.71,0,0,0-.32,2,20.9,20.9,0,0,0-.1,2.16,11.74,11.74,0,0,0,2.67,8.08C1398.09,476.52,1400.73,477.53,1404.23,477.53Z" fill="#fff" stroke="#fff" stroke-miterlimit="10" stroke-width="1.42"/><path d="M1462.19,486.66a29.31,29.31,0,0,1-12.13-2.52,21.66,21.66,0,0,1-9-7.26l7.14-6.52a19.32,19.32,0,0,0,6,5.3,16.79,16.79,0,0,0,8.14,1.87q5.25,0,8.14-2.29a7.43,7.43,0,0,0,2.89-6.13,5.68,5.68,0,0,0-1.37-3.79q-1.36-1.62-5.35-2.34l-4.73-.83a22.73,22.73,0,0,1-10.6-4.42c-2.67-2.17-4-5.47-4-9.89a18.46,18.46,0,0,1,1.31-6.89,16.28,16.28,0,0,1,3.94-5.83,19.06,19.06,0,0,1,6.61-4.05,26.07,26.07,0,0,1,9.35-1.53q12.18,0,18.9,8.32l-7.14,6.53a14.69,14.69,0,0,0-4.94-4.1,15.69,15.69,0,0,0-7.45-1.61c-3.36,0-5.87.72-7.51,2.18a7.11,7.11,0,0,0-2.47,5.6,5.49,5.49,0,0,0,1.42,3.85q1.41,1.56,5.3,2.28l4.73.74q6.82,1.16,10.71,4.52t3.88,10a18.37,18.37,0,0,1-1.52,7.52,17.33,17.33,0,0,1-4.36,5.94,20.23,20.23,0,0,1-6.88,3.94A27.16,27.16,0,0,1,1462.19,486.66Z" fill="#fff" stroke="#fff" stroke-miterlimit="10" stroke-width="1.42"/><path d="M1507.66,485.4a8.35,8.35,0,0,1-6.09-2,7.07,7.07,0,0,1-2.1-5.3,13.74,13.74,0,0,1,.31-2.62l8.93-44.63h10.92l-9.14,45.47h7l-1.79,9.13Zm8.71-64.36a6.38,6.38,0,0,1-4.41-1.26,4.1,4.1,0,0,1-1.36-3.15,22,22,0,0,1,.52-3.68,7.77,7.77,0,0,1,2.21-4q1.68-1.64,5.35-1.63a6.38,6.38,0,0,1,4.41,1.26,4.11,4.11,0,0,1,1.37,3.15,22.33,22.33,0,0,1-.53,3.68,7.8,7.8,0,0,1-2.2,4C1520.61,420.49,1518.82,421,1516.37,421Z" fill="#fff" stroke="#fff" stroke-miterlimit="10" stroke-width="1.42"/><path d="M1551.65,430.8,1545,464q-.32,1.47-.48,2.94a26.24,26.24,0,0,0-.15,2.63,9,9,0,0,0,1.57,5.67q1.57,2,5.25,2,5.25,0,9.35-4.62a27.24,27.24,0,0,0,4-6,26.22,26.22,0,0,0,2.26-6.56l5.88-29.19h10.92l-9.14,45.47h7l-1.79,9.13h-8.4a8,8,0,0,1-5.72-1.94,7,7,0,0,1-2.05-5.3,18.44,18.44,0,0,1,.32-3.15l.21-1.26h-.53a28.08,28.08,0,0,1-7,9.6,14.92,14.92,0,0,1-9.87,3.31q-6.72,0-10.14-3.88T1533.17,472a30.53,30.53,0,0,1,.21-3.57c.14-1.19.35-2.48.63-3.88l6.72-33.71Z" fill="#fff" stroke="#fff" stroke-miterlimit="10" stroke-width="1.42"/><path d="M1594.49,485.4l10.92-54.6h10.92L1614,442.46h.53a28.45,28.45,0,0,1,7-9.61,15,15,0,0,1,10-3.31q6,0,9.13,3.41t3.57,9.51h.53a26.8,26.8,0,0,1,7.09-9.56,16,16,0,0,1,10.44-3.36q6.62,0,9.93,3.83t3.3,10.66a39.22,39.22,0,0,1-.94,8.19l-4.83,24h6.61l-1.78,9.13h-8.3a8.42,8.42,0,0,1-5.61-1.73,6.28,6.28,0,0,1-2-5.09A10.82,10.82,0,0,1,1659,476l4.73-23.73c.21-1.05.38-2.06.52-3a19.39,19.39,0,0,0,.21-2.73,8.36,8.36,0,0,0-1.63-5.52q-1.62-1.94-5.09-1.94-4.83,0-8.92,4.62a23.21,23.21,0,0,0-3.89,5.88,28.58,28.58,0,0,0-2.2,6.51l-5.88,29.4h-10.92l6.61-33.07c.21-1.05.39-2.09.53-3.1a21.26,21.26,0,0,0,.21-2.89,8.55,8.55,0,0,0-1.53-5.41q-1.51-1.94-4.88-1.94a10.35,10.35,0,0,0-5,1.26,14.38,14.38,0,0,0-4.09,3.36,29.29,29.29,0,0,0-4.1,6,24.41,24.41,0,0,0-2.31,6.4l-5.88,29.4Z" fill="#fff" stroke="#fff" stroke-miterlimit="10" stroke-width="1.42"/><path d="M295.43,108.46h8.11a4.91,4.91,0,0,1,3.59,1.28,4.66,4.66,0,0,1,1.3,3.44,4.78,4.78,0,0,1-.29,1.75,3.72,3.72,0,0,1-.74,1.18,2.85,2.85,0,0,1-1,.68,4.45,4.45,0,0,1-1.13.28v.15a4.36,4.36,0,0,1,1.22.27,3.54,3.54,0,0,1,1.25.75,4.14,4.14,0,0,1,1,1.31,4.4,4.4,0,0,1,.39,2,6.18,6.18,0,0,1-.35,2.08,5.41,5.41,0,0,1-1,1.68,4.54,4.54,0,0,1-1.49,1.11,4.43,4.43,0,0,1-1.89.41h-8.93Zm3,7.74H303a2.43,2.43,0,0,0,1.71-.56,2.13,2.13,0,0,0,.6-1.62v-.84a2.09,2.09,0,0,0-.6-1.61A2.39,2.39,0,0,0,303,111H298.4Zm0,8h5.09a2.58,2.58,0,0,0,1.81-.6,2.22,2.22,0,0,0,.66-1.73V121a2.22,2.22,0,0,0-.66-1.73,2.58,2.58,0,0,0-1.81-.6H298.4Z" fill="#eef2f0"/><path d="M320.5,127.09a6.52,6.52,0,0,1-2.58-.49,5.6,5.6,0,0,1-2-1.43,6.79,6.79,0,0,1-1.26-2.26,10.14,10.14,0,0,1,0-5.91,6.69,6.69,0,0,1,1.26-2.26,5.6,5.6,0,0,1,2-1.43,6.93,6.93,0,0,1,5.17,0,5.48,5.48,0,0,1,2,1.43,6.69,6.69,0,0,1,1.26,2.26,10.14,10.14,0,0,1,0,5.91,6.79,6.79,0,0,1-1.26,2.26,5.48,5.48,0,0,1-2,1.43A6.57,6.57,0,0,1,320.5,127.09Zm0-2.38a3.13,3.13,0,0,0,2.36-.91,3.67,3.67,0,0,0,.9-2.7v-2.29a3.69,3.69,0,0,0-.9-2.71,3.54,3.54,0,0,0-4.72,0,3.69,3.69,0,0,0-.89,2.71v2.29a3.66,3.66,0,0,0,.89,2.7A3.13,3.13,0,0,0,320.5,124.71Z" fill="#eef2f0"/><path d="M336.91,127.09a7,7,0,0,1-3.26-.68,7.08,7.08,0,0,1-2.28-1.89l1.84-1.68a5.81,5.81,0,0,0,1.69,1.43,4.42,4.42,0,0,0,2.16.51,3,3,0,0,0,1.88-.48,1.73,1.73,0,0,0,.19-2.47,2.53,2.53,0,0,0-1.51-.59l-1.26-.16a6.44,6.44,0,0,1-3.3-1.22,3.45,3.45,0,0,1-1.19-2.85,4.18,4.18,0,0,1,.36-1.77,3.9,3.9,0,0,1,1-1.31,5,5,0,0,1,1.6-.83,7,7,0,0,1,2.06-.29,6.87,6.87,0,0,1,3,.58A7.11,7.11,0,0,1,342,115l-1.76,1.68a4.66,4.66,0,0,0-1.38-1.09,4.14,4.14,0,0,0-2-.46,2.64,2.64,0,0,0-1.74.48,1.51,1.51,0,0,0-.57,1.23,1.41,1.41,0,0,0,.5,1.18,3.63,3.63,0,0,0,1.6.58l1.26.16a6,6,0,0,1,3.3,1.32,3.49,3.49,0,0,1,1,2.64,4,4,0,0,1-.39,1.8,4,4,0,0,1-1.08,1.38,5.33,5.33,0,0,1-1.71.89A7.42,7.42,0,0,1,336.91,127.09Z" fill="#eef2f0"/><path d="M351.77,126.78a3.06,3.06,0,0,1-2.26-.77,3,3,0,0,1-.76-2.2v-8.34h-2.13v-2.34h1.16a1.25,1.25,0,0,0,1-.32,1.55,1.55,0,0,0,.28-1V109.4h2.57v3.73h2.86v2.34h-2.86v9h2.65v2.34Z" fill="#eef2f0"/><path d="M365.44,127.09a6.52,6.52,0,0,1-2.58-.49,5.6,5.6,0,0,1-2-1.43,6.79,6.79,0,0,1-1.26-2.26,10.14,10.14,0,0,1,0-5.91,6.69,6.69,0,0,1,1.26-2.26,5.6,5.6,0,0,1,2-1.43,6.93,6.93,0,0,1,5.17,0,5.48,5.48,0,0,1,2,1.43,6.69,6.69,0,0,1,1.26,2.26,9.93,9.93,0,0,1,0,5.91,6.79,6.79,0,0,1-1.26,2.26,5.48,5.48,0,0,1-2,1.43A6.57,6.57,0,0,1,365.44,127.09Zm0-2.38a3.13,3.13,0,0,0,2.36-.91,3.67,3.67,0,0,0,.9-2.7v-2.29a3.69,3.69,0,0,0-.9-2.71,3.54,3.54,0,0,0-4.72,0,3.69,3.69,0,0,0-.89,2.71v2.29a3.66,3.66,0,0,0,.89,2.7A3.13,3.13,0,0,0,365.44,124.71Z" fill="#eef2f0"/><path d="M377.52,126.78V113.13h2.86v2.26h.13a4.53,4.53,0,0,1,1.35-1.84,3.84,3.84,0,0,1,2.48-.74,4.05,4.05,0,0,1,3.27,1.38,5.91,5.91,0,0,1,1.17,3.93v8.66h-2.86v-8.3c0-2.13-.86-3.2-2.58-3.2a4,4,0,0,0-1.08.15,3,3,0,0,0-1,.43,2.13,2.13,0,0,0-.67.73,2.09,2.09,0,0,0-.25,1v9.14Z" fill="#eef2f0"/><path d="M411.2,111.08v15.7h-3v-15.7h-5.46v-2.62h13.89v2.62Z" fill="#eef2f0"/><path d="M430.12,126.78a2.25,2.25,0,0,1-1.73-.64,2.85,2.85,0,0,1-.73-1.64h-.14a3.37,3.37,0,0,1-1.44,1.94,4.69,4.69,0,0,1-2.55.65,4.48,4.48,0,0,1-3.26-1.1,3.89,3.89,0,0,1-1.15-3,3.5,3.5,0,0,1,1.49-3.08,7.64,7.64,0,0,1,4.34-1h2.47v-1.15a2.67,2.67,0,0,0-.68-2,2.94,2.94,0,0,0-2.13-.68,3.42,3.42,0,0,0-2,.53,4.81,4.81,0,0,0-1.29,1.33l-1.7-1.54a5.46,5.46,0,0,1,1.91-1.91,6.18,6.18,0,0,1,3.23-.75,6,6,0,0,1,4.07,1.24,4.42,4.42,0,0,1,1.42,3.54v6.85h1.44v2.34Zm-5.77-1.86a3.76,3.76,0,0,0,2.2-.6,1.82,1.82,0,0,0,.87-1.58v-2H425c-2,0-3,.61-3,1.84v.47a1.62,1.62,0,0,0,.61,1.38A2.86,2.86,0,0,0,424.35,124.92Z" fill="#eef2f0"/><path d="M438.6,110.69a1.75,1.75,0,0,1-1.3-.42,1.49,1.49,0,0,1-.4-1.08v-.44a1.49,1.49,0,0,1,.4-1.08,1.75,1.75,0,0,1,1.3-.42,1.7,1.7,0,0,1,1.29.42,1.52,1.52,0,0,1,.39,1.08v.44a1.52,1.52,0,0,1-.39,1.08A1.7,1.7,0,0,1,438.6,110.69Zm-1.44,2.44H440v13.65h-2.86Z" fill="#eef2f0"/><path d="M445.37,113.13h2.79l1.39,5.72,1.23,5.17h.08l1.42-5.17,1.65-5.72h2.57l1.68,5.72,1.45,5.17h.08l1.2-5.17,1.42-5.72H465l-3.67,13.65h-3.23l-1.79-6.22-1.1-3.83h-.05l-1.08,3.83-1.81,6.22H449.1Z" fill="#eef2f0"/><path d="M480.05,126.78a2.25,2.25,0,0,1-1.73-.64,2.93,2.93,0,0,1-.74-1.64h-.13a3.37,3.37,0,0,1-1.44,1.94,4.69,4.69,0,0,1-2.55.65,4.51,4.51,0,0,1-3.27-1.1,3.92,3.92,0,0,1-1.14-3,3.5,3.5,0,0,1,1.49-3.08,7.62,7.62,0,0,1,4.34-1h2.47v-1.15a2.64,2.64,0,0,0-.69-2,2.9,2.9,0,0,0-2.12-.68,3.4,3.4,0,0,0-2,.53,4.68,4.68,0,0,0-1.29,1.33l-1.7-1.54a5.46,5.46,0,0,1,1.91-1.91,6.18,6.18,0,0,1,3.23-.75,6,6,0,0,1,4.07,1.24,4.42,4.42,0,0,1,1.42,3.54v6.85h1.44v2.34Zm-5.77-1.86a3.78,3.78,0,0,0,2.2-.6,1.82,1.82,0,0,0,.87-1.58v-2h-2.42c-2,0-3,.61-3,1.84v.47a1.62,1.62,0,0,0,.61,1.38A2.84,2.84,0,0,0,474.28,124.92Z" fill="#eef2f0"/><path d="M487.09,126.78V113.13H490v2.26h.13a4.53,4.53,0,0,1,1.35-1.84,3.82,3.82,0,0,1,2.48-.74,4.05,4.05,0,0,1,3.27,1.38,5.91,5.91,0,0,1,1.17,3.93v8.66h-2.86v-8.3c0-2.13-.86-3.2-2.58-3.2a4.09,4.09,0,0,0-1.09.15,3,3,0,0,0-.95.43,2.13,2.13,0,0,0-.67.73,2.09,2.09,0,0,0-.25,1v9.14Z" fill="#eef2f0"/><path d="M510.29,127.09a6.58,6.58,0,0,1-2.62-.49,5.53,5.53,0,0,1-2-1.43,6.44,6.44,0,0,1-1.25-2.26,10.37,10.37,0,0,1,0-5.91,6.35,6.35,0,0,1,1.25-2.26,5.53,5.53,0,0,1,2-1.43,6.58,6.58,0,0,1,2.62-.5,6.25,6.25,0,0,1,2.64.53,5.29,5.29,0,0,1,1.9,1.46A6.21,6.21,0,0,1,516,117a8.75,8.75,0,0,1,.38,2.65v1.08H507v.44a3.59,3.59,0,0,0,.94,2.57,3.44,3.44,0,0,0,2.66,1,4,4,0,0,0,2.13-.55,5,5,0,0,0,1.47-1.49l1.68,1.66a5.47,5.47,0,0,1-2.21,2A7.17,7.17,0,0,1,510.29,127.09Zm0-12a3.32,3.32,0,0,0-1.35.26,3,3,0,0,0-1.05.73,3.36,3.36,0,0,0-.67,1.13,4.2,4.2,0,0,0-.24,1.45v.18h6.36v-.26a3.82,3.82,0,0,0-.82-2.54A2.75,2.75,0,0,0,510.29,115.05Z" fill="#eef2f0"/><path d="M526.49,127.09a7,7,0,0,1-3.26-.68,7.08,7.08,0,0,1-2.28-1.89l1.84-1.68a5.81,5.81,0,0,0,1.69,1.43,4.43,4.43,0,0,0,2.17.51,3,3,0,0,0,1.87-.48,1.73,1.73,0,0,0,.19-2.47,2.53,2.53,0,0,0-1.51-.59l-1.26-.16a6.44,6.44,0,0,1-3.3-1.22,3.45,3.45,0,0,1-1.19-2.85,4.18,4.18,0,0,1,.36-1.77,3.9,3.9,0,0,1,1-1.31,5,5,0,0,1,1.6-.83,7,7,0,0,1,2.06-.29,6.87,6.87,0,0,1,3,.58,7.11,7.11,0,0,1,2.09,1.6l-1.76,1.68a4.66,4.66,0,0,0-1.38-1.09,4.14,4.14,0,0,0-2-.46,2.64,2.64,0,0,0-1.74.48,1.51,1.51,0,0,0-.57,1.23,1.41,1.41,0,0,0,.5,1.18,3.63,3.63,0,0,0,1.6.58l1.26.16a6,6,0,0,1,3.3,1.32,3.49,3.49,0,0,1,1,2.64,4,4,0,0,1-.39,1.8,4,4,0,0,1-1.08,1.38,5.33,5.33,0,0,1-1.71.89A7.42,7.42,0,0,1,526.49,127.09Z" fill="#eef2f0"/><path d="M543.1,127.09a6.58,6.58,0,0,1-2.62-.49,5.53,5.53,0,0,1-2-1.43,6.6,6.6,0,0,1-1.25-2.26,10.37,10.37,0,0,1,0-5.91,6.51,6.51,0,0,1,1.25-2.26,5.53,5.53,0,0,1,2-1.43,6.58,6.58,0,0,1,2.62-.5,6.25,6.25,0,0,1,2.64.53,5.33,5.33,0,0,1,1.91,1.46,6.56,6.56,0,0,1,1.14,2.16,9.08,9.08,0,0,1,.38,2.65v1.08H539.8v.44a3.62,3.62,0,0,0,.93,2.57,3.45,3.45,0,0,0,2.66,1,4,4,0,0,0,2.13-.55,4.76,4.76,0,0,0,1.47-1.49l1.68,1.66a5.4,5.4,0,0,1-2.21,2A7.17,7.17,0,0,1,543.1,127.09Zm0-12a3.32,3.32,0,0,0-1.35.26,3,3,0,0,0-1,.73,3.36,3.36,0,0,0-.67,1.13,4.45,4.45,0,0,0-.23,1.45v.18h6.35v-.26a3.77,3.77,0,0,0-.82-2.54A2.75,2.75,0,0,0,543.1,115.05Z" fill="#eef2f0"/><path d="M564,108.46h8.11a4.88,4.88,0,0,1,3.58,1.28,5.27,5.27,0,0,1,1,5.19,3.53,3.53,0,0,1-.73,1.18,2.85,2.85,0,0,1-1,.68,4.55,4.55,0,0,1-1.13.28v.15a4.44,4.44,0,0,1,1.22.27,3.5,3.5,0,0,1,1.24.75,4.17,4.17,0,0,1,1,1.31,4.4,4.4,0,0,1,.39,2,5.94,5.94,0,0,1-.36,2.08,5.2,5.2,0,0,1-1,1.68,4.58,4.58,0,0,1-1.5,1.11,4.36,4.36,0,0,1-1.89.41H564Zm3,7.74h4.59a2.46,2.46,0,0,0,1.71-.56,2.13,2.13,0,0,0,.6-1.62v-.84a2.09,2.09,0,0,0-.6-1.61,2.42,2.42,0,0,0-1.71-.57H567Zm0,8h5.09a2.58,2.58,0,0,0,1.81-.6,2.22,2.22,0,0,0,.66-1.73V121a2.22,2.22,0,0,0-.66-1.73,2.58,2.58,0,0,0-1.81-.6H567Z" fill="#eef2f0"/><path d="M585.16,110.69a1.74,1.74,0,0,1-1.3-.42,1.49,1.49,0,0,1-.41-1.08v-.44a1.49,1.49,0,0,1,.41-1.08,1.74,1.74,0,0,1,1.3-.42,1.68,1.68,0,0,1,1.28.42,1.49,1.49,0,0,1,.4,1.08v.44a1.49,1.49,0,0,1-.4,1.08A1.68,1.68,0,0,1,585.16,110.69Zm-1.45,2.44h2.86v13.65h-2.86Z" fill="#eef2f0"/><path d="M598.65,127.09a6.57,6.57,0,0,1-2.59-.49,5.57,5.57,0,0,1-2-1.43,6.79,6.79,0,0,1-1.26-2.26,10.14,10.14,0,0,1,0-5.91,6.69,6.69,0,0,1,1.26-2.26,5.57,5.57,0,0,1,2-1.43,7,7,0,0,1,5.18,0,5.66,5.66,0,0,1,2,1.43,6.69,6.69,0,0,1,1.26,2.26,10.14,10.14,0,0,1,0,5.91,6.79,6.79,0,0,1-1.26,2.26,5.66,5.66,0,0,1-2,1.43A6.6,6.6,0,0,1,598.65,127.09Zm0-2.38a3.13,3.13,0,0,0,2.36-.91,3.66,3.66,0,0,0,.89-2.7v-2.29a3.69,3.69,0,0,0-.89-2.71,3.54,3.54,0,0,0-4.72,0,3.69,3.69,0,0,0-.9,2.71v2.29a3.67,3.67,0,0,0,.9,2.7A3.13,3.13,0,0,0,598.65,124.71Z" fill="#eef2f0"/><path d="M614.43,126.78a3.06,3.06,0,0,1-2.26-.77,3,3,0,0,1-.76-2.2v-8.34h-2.13v-2.34h1.16a1.25,1.25,0,0,0,1-.32,1.55,1.55,0,0,0,.28-1V109.4h2.57v3.73h2.86v2.34h-2.86v9h2.65v2.34Z" fill="#eef2f0"/><path d="M628.1,127.09a6.58,6.58,0,0,1-2.62-.49,5.53,5.53,0,0,1-2-1.43,6.6,6.6,0,0,1-1.25-2.26,10.37,10.37,0,0,1,0-5.91,6.51,6.51,0,0,1,1.25-2.26,5.53,5.53,0,0,1,2-1.43,6.58,6.58,0,0,1,2.62-.5,6.25,6.25,0,0,1,2.64.53,5.21,5.21,0,0,1,1.9,1.46,6.4,6.4,0,0,1,1.15,2.16,9.08,9.08,0,0,1,.38,2.65v1.08H624.8v.44a3.62,3.62,0,0,0,.93,2.57,3.45,3.45,0,0,0,2.66,1,4,4,0,0,0,2.13-.55,4.86,4.86,0,0,0,1.47-1.49l1.68,1.66a5.4,5.4,0,0,1-2.21,2A7.17,7.17,0,0,1,628.1,127.09Zm0-12a3.32,3.32,0,0,0-1.35.26,3,3,0,0,0-1,.73,3.36,3.36,0,0,0-.67,1.13,4.2,4.2,0,0,0-.23,1.45v.18h6.35v-.26a3.77,3.77,0,0,0-.82-2.54A2.75,2.75,0,0,0,628.1,115.05Z" fill="#eef2f0"/><path d="M645.24,127.09a6.58,6.58,0,0,1-2.62-.49,5.25,5.25,0,0,1-1.94-1.43,6.53,6.53,0,0,1-1.21-2.26,10.61,10.61,0,0,1,0-5.91,6.44,6.44,0,0,1,1.21-2.26,5.25,5.25,0,0,1,1.94-1.43,6.58,6.58,0,0,1,2.62-.5,5.72,5.72,0,0,1,3.36.92,5.31,5.31,0,0,1,1.92,2.44l-2.36,1.11a2.92,2.92,0,0,0-1-1.51,3,3,0,0,0-1.91-.57,2.88,2.88,0,0,0-2.37,1,3.9,3.9,0,0,0-.8,2.56v2.43a3.86,3.86,0,0,0,.8,2.55,2.86,2.86,0,0,0,2.37,1,3.07,3.07,0,0,0,2-.62,4.34,4.34,0,0,0,1.2-1.64l2.18,1.15a5.46,5.46,0,0,1-2,2.59A5.93,5.93,0,0,1,645.24,127.09Z" fill="#eef2f0"/><path d="M656,107.35h2.86v8H659a4.46,4.46,0,0,1,1.36-1.84,3.82,3.82,0,0,1,2.48-.74,4,4,0,0,1,3.26,1.38,5.91,5.91,0,0,1,1.17,3.93v8.66h-2.86v-8.32c0-2.12-.86-3.18-2.57-3.18a4,4,0,0,0-1.09.15,3,3,0,0,0-1,.43,2.23,2.23,0,0,0-.67.73,2,2,0,0,0-.25,1v9.16H656Z" fill="#eef2f0"/><path d="M673.83,126.78V113.13h2.86v2.26h.13a4.46,4.46,0,0,1,1.36-1.84,3.82,3.82,0,0,1,2.48-.74,4,4,0,0,1,3.26,1.38,5.91,5.91,0,0,1,1.17,3.93v8.66h-2.86v-8.3c0-2.13-.86-3.2-2.57-3.2a4,4,0,0,0-1.09.15,3,3,0,0,0-1,.43,2.23,2.23,0,0,0-.67.73,2.09,2.09,0,0,0-.25,1v9.14Z" fill="#eef2f0"/><path d="M697,127.09a6.57,6.57,0,0,1-2.59-.49,5.48,5.48,0,0,1-2-1.43,6.79,6.79,0,0,1-1.26-2.26,9.93,9.93,0,0,1,0-5.91,6.69,6.69,0,0,1,1.26-2.26,5.48,5.48,0,0,1,2-1.43,6.93,6.93,0,0,1,5.17,0,5.48,5.48,0,0,1,2,1.43,6.37,6.37,0,0,1,1.26,2.26,9.93,9.93,0,0,1,0,5.91,6.46,6.46,0,0,1-1.26,2.26,5.48,5.48,0,0,1-2,1.43A6.55,6.55,0,0,1,697,127.09Zm0-2.38a3.15,3.15,0,0,0,2.36-.91,3.71,3.71,0,0,0,.89-2.7v-2.29a3.73,3.73,0,0,0-.89-2.71,3.56,3.56,0,0,0-4.73,0,3.73,3.73,0,0,0-.89,2.71v2.29a3.71,3.71,0,0,0,.89,2.7A3.17,3.17,0,0,0,697,124.71Z" fill="#eef2f0"/><path d="M712,126.78a2.58,2.58,0,0,1-2.91-2.84V107.35H712v17.09h1.89v2.34Z" fill="#eef2f0"/><path d="M724.57,127.09a6.52,6.52,0,0,1-2.58-.49,5.6,5.6,0,0,1-2-1.43,6.79,6.79,0,0,1-1.26-2.26,10.14,10.14,0,0,1,0-5.91,6.69,6.69,0,0,1,1.26-2.26,5.6,5.6,0,0,1,2-1.43,6.93,6.93,0,0,1,5.17,0,5.48,5.48,0,0,1,2,1.43A6.69,6.69,0,0,1,730.4,117a9.93,9.93,0,0,1,0,5.91,6.79,6.79,0,0,1-1.26,2.26,5.48,5.48,0,0,1-2,1.43A6.57,6.57,0,0,1,724.57,127.09Zm0-2.38a3.13,3.13,0,0,0,2.36-.91,3.67,3.67,0,0,0,.9-2.7v-2.29a3.69,3.69,0,0,0-.9-2.71,3.54,3.54,0,0,0-4.72,0,3.69,3.69,0,0,0-.89,2.71v2.29a3.66,3.66,0,0,0,.89,2.7A3.13,3.13,0,0,0,724.57,124.71Z" fill="#eef2f0"/><path d="M748.62,128.07a3.61,3.61,0,0,1-1.63,3.2c-1.09.72-2.85,1.07-5.3,1.07a15.42,15.42,0,0,1-2.85-.22,6.44,6.44,0,0,1-1.92-.64,2.72,2.72,0,0,1-1.09-1,2.83,2.83,0,0,1-.34-1.39,2.42,2.42,0,0,1,.62-1.76,3.3,3.3,0,0,1,1.72-.86v-.29a2,2,0,0,1-1.55-2.1,1.93,1.93,0,0,1,.71-1.61,4.27,4.27,0,0,1,1.7-.81v-.1a4.36,4.36,0,0,1-1.85-1.61,4.64,4.64,0,0,1-.64-2.43,4.38,4.38,0,0,1,1.41-3.39,5.71,5.71,0,0,1,4-1.29,6.47,6.47,0,0,1,2.47.42v-.36a2.13,2.13,0,0,1,.44-1.43,1.62,1.62,0,0,1,1.35-.52H748v2.31H745.2v.56a4,4,0,0,1,1.42,1.56,4.59,4.59,0,0,1,.5,2.14,4.25,4.25,0,0,1-1.42,3.34,5.83,5.83,0,0,1-4,1.28,6.9,6.9,0,0,1-1.78-.21,2.84,2.84,0,0,0-.92.51,1,1,0,0,0-.4.85.82.82,0,0,0,.5.79,3.36,3.36,0,0,0,1.42.24h3.36a5.36,5.36,0,0,1,3.65,1A3.52,3.52,0,0,1,748.62,128.07Zm-2.68.31a1.36,1.36,0,0,0-.54-1.13,3.31,3.31,0,0,0-1.95-.42h-4.62a1.74,1.74,0,0,0-1,1.58,1.61,1.61,0,0,0,.67,1.35,3.84,3.84,0,0,0,2.27.51h1.79Q745.94,130.27,745.94,128.38ZM741.66,120a3,3,0,0,0,2-.56,2.13,2.13,0,0,0,.69-1.75v-.52a2.13,2.13,0,0,0-.69-1.75,3.09,3.09,0,0,0-2-.56,3,3,0,0,0-1.95.56,2.11,2.11,0,0,0-.7,1.75v.52a2.11,2.11,0,0,0,.7,1.75A3,3,0,0,0,741.66,120Z" fill="#eef2f0"/><path d="M761.87,113.13h2.76l-5.75,16.35a5.82,5.82,0,0,1-.54,1.17,2.73,2.73,0,0,1-.71.79,2.86,2.86,0,0,1-1,.45,6.08,6.08,0,0,1-1.37.14h-1.65v-2.34h2.31l.79-2.31-5-14.25h2.86l2.73,8,.79,3h.13l.86-3Z" fill="#eef2f0"/><path d="M790.09,126.78l-1.65-5h-6.85l-1.6,5h-3l6.24-18.32h3.73l6.25,18.32Zm-5-15.59H785l-2.65,8.08h5.4Z" fill="#eef2f0"/><path d="M802.77,127.09a6.92,6.92,0,0,1-3.25-.68,7,7,0,0,1-2.29-1.89l1.84-1.68a5.94,5.94,0,0,0,1.69,1.43,4.43,4.43,0,0,0,2.17.51,3,3,0,0,0,1.87-.48,1.6,1.6,0,0,0,.62-1.35,1.57,1.57,0,0,0-.43-1.12,2.5,2.5,0,0,0-1.51-.59l-1.26-.16a6.44,6.44,0,0,1-3.3-1.22,3.45,3.45,0,0,1-1.19-2.85,4,4,0,0,1,.37-1.77,3.75,3.75,0,0,1,1-1.31,4.9,4.9,0,0,1,1.61-.83,7,7,0,0,1,2.06-.29,6.85,6.85,0,0,1,3,.58,7,7,0,0,1,2.09,1.6l-1.76,1.68a4.66,4.66,0,0,0-1.38-1.09,4.13,4.13,0,0,0-2-.46,2.67,2.67,0,0,0-1.75.48,1.5,1.5,0,0,0-.56,1.23A1.38,1.38,0,0,0,801,118a3.53,3.53,0,0,0,1.6.58l1.26.16a6,6,0,0,1,3.29,1.32,3.49,3.49,0,0,1,1,2.64,3.94,3.94,0,0,1-1.47,3.18,5.13,5.13,0,0,1-1.71.89A7.38,7.38,0,0,1,802.77,127.09Z" fill="#eef2f0"/><path d="M818.21,127.09a6.53,6.53,0,0,1-5.54-2.57l1.83-1.68a6,6,0,0,0,1.7,1.43,4.42,4.42,0,0,0,2.16.51,3,3,0,0,0,1.88-.48,1.63,1.63,0,0,0,.62-1.35,1.58,1.58,0,0,0-.44-1.12,2.5,2.5,0,0,0-1.51-.59l-1.26-.16a6.4,6.4,0,0,1-3.29-1.22,3.43,3.43,0,0,1-1.19-2.85,4.18,4.18,0,0,1,.36-1.77,3.78,3.78,0,0,1,1-1.31,5,5,0,0,1,1.6-.83,7,7,0,0,1,2.06-.29,6.87,6.87,0,0,1,3,.58,6.94,6.94,0,0,1,2.08,1.6l-1.75,1.68a4.66,4.66,0,0,0-1.38-1.09,4.14,4.14,0,0,0-2-.46,2.62,2.62,0,0,0-1.74.48,1.51,1.51,0,0,0-.57,1.23,1.41,1.41,0,0,0,.5,1.18,3.58,3.58,0,0,0,1.6.58l1.26.16a6.06,6.06,0,0,1,3.3,1.32,3.48,3.48,0,0,1,1,2.64,4,4,0,0,1-.38,1.8,3.91,3.91,0,0,1-1.09,1.38,5.18,5.18,0,0,1-1.7.89A7.42,7.42,0,0,1,818.21,127.09Z" fill="#eef2f0"/><path d="M834.82,127.09a6.52,6.52,0,0,1-2.58-.49,5.6,5.6,0,0,1-2-1.43,6.79,6.79,0,0,1-1.26-2.26,10.14,10.14,0,0,1,0-5.91,6.69,6.69,0,0,1,1.26-2.26,5.6,5.6,0,0,1,2-1.43,6.93,6.93,0,0,1,5.17,0,5.48,5.48,0,0,1,2,1.43,6.69,6.69,0,0,1,1.26,2.26,9.93,9.93,0,0,1,0,5.91,6.79,6.79,0,0,1-1.26,2.26,5.48,5.48,0,0,1-2,1.43A6.57,6.57,0,0,1,834.82,127.09Zm0-2.38a3.13,3.13,0,0,0,2.36-.91,3.67,3.67,0,0,0,.9-2.7v-2.29a3.69,3.69,0,0,0-.9-2.71,3.54,3.54,0,0,0-4.72,0,3.69,3.69,0,0,0-.89,2.71v2.29a3.66,3.66,0,0,0,.89,2.7A3.13,3.13,0,0,0,834.82,124.71Z" fill="#eef2f0"/><path d="M852.17,127.09a6.58,6.58,0,0,1-2.62-.49,5.25,5.25,0,0,1-1.94-1.43,6.53,6.53,0,0,1-1.21-2.26,10.61,10.61,0,0,1,0-5.91,6.44,6.44,0,0,1,1.21-2.26,5.25,5.25,0,0,1,1.94-1.43,6.58,6.58,0,0,1,2.62-.5,5.72,5.72,0,0,1,3.36.92,5.31,5.31,0,0,1,1.92,2.44l-2.36,1.11a2.81,2.81,0,0,0-2.92-2.08,2.88,2.88,0,0,0-2.37,1,3.9,3.9,0,0,0-.8,2.56v2.43a3.86,3.86,0,0,0,.8,2.55,2.86,2.86,0,0,0,2.37,1,3.07,3.07,0,0,0,2-.62,4.34,4.34,0,0,0,1.2-1.64l2.17,1.15a5.38,5.38,0,0,1-2,2.59A5.93,5.93,0,0,1,852.17,127.09Z" fill="#eef2f0"/><path d="M864.35,110.69a1.77,1.77,0,0,1-1.3-.42,1.49,1.49,0,0,1-.4-1.08v-.44a1.49,1.49,0,0,1,.4-1.08,1.77,1.77,0,0,1,1.3-.42,1.7,1.7,0,0,1,1.29.42,1.52,1.52,0,0,1,.39,1.08v.44a1.52,1.52,0,0,1-.39,1.08A1.7,1.7,0,0,1,864.35,110.69Zm-1.44,2.44h2.86v13.65h-2.86Z" fill="#eef2f0"/><path d="M882.49,126.78a2.25,2.25,0,0,1-1.73-.64,2.93,2.93,0,0,1-.74-1.64h-.13a3.37,3.37,0,0,1-1.44,1.94,4.69,4.69,0,0,1-2.55.65,4.48,4.48,0,0,1-3.26-1.1,3.89,3.89,0,0,1-1.15-3A3.5,3.5,0,0,1,873,120a7.62,7.62,0,0,1,4.34-1h2.47v-1.15a2.67,2.67,0,0,0-.68-2,2.94,2.94,0,0,0-2.13-.68,3.4,3.4,0,0,0-2,.53,4.68,4.68,0,0,0-1.29,1.33l-1.7-1.54a5.46,5.46,0,0,1,1.91-1.91,6.18,6.18,0,0,1,3.23-.75,6,6,0,0,1,4.07,1.24,4.42,4.42,0,0,1,1.42,3.54v6.85h1.44v2.34Zm-5.77-1.86a3.78,3.78,0,0,0,2.2-.6,1.82,1.82,0,0,0,.87-1.58v-2h-2.42c-2,0-3,.61-3,1.84v.47a1.62,1.62,0,0,0,.61,1.38A2.86,2.86,0,0,0,876.72,124.92Z" fill="#eef2f0"/><path d="M893.23,126.78A3.06,3.06,0,0,1,891,126a3,3,0,0,1-.76-2.2v-8.34h-2.13v-2.34h1.16a1.25,1.25,0,0,0,1-.32,1.5,1.5,0,0,0,.28-1V109.4h2.57v3.73h2.86v2.34h-2.86v9h2.65v2.34Z" fill="#eef2f0"/><path d="M903.1,110.69a1.74,1.74,0,0,1-1.3-.42,1.49,1.49,0,0,1-.41-1.08v-.44a1.49,1.49,0,0,1,.41-1.08,1.74,1.74,0,0,1,1.3-.42,1.68,1.68,0,0,1,1.28.42,1.49,1.49,0,0,1,.4,1.08v.44a1.49,1.49,0,0,1-.4,1.08A1.68,1.68,0,0,1,903.1,110.69Zm-1.45,2.44h2.87v13.65h-2.87Z" fill="#eef2f0"/><path d="M916.59,127.09a6.52,6.52,0,0,1-2.58-.49,5.6,5.6,0,0,1-2-1.43,6.79,6.79,0,0,1-1.26-2.26,10.14,10.14,0,0,1,0-5.91,6.69,6.69,0,0,1,1.26-2.26,5.6,5.6,0,0,1,2-1.43,6.93,6.93,0,0,1,5.17,0,5.48,5.48,0,0,1,2,1.43,6.69,6.69,0,0,1,1.26,2.26,9.93,9.93,0,0,1,0,5.91,6.79,6.79,0,0,1-1.26,2.26,5.48,5.48,0,0,1-2,1.43A6.57,6.57,0,0,1,916.59,127.09Zm0-2.38a3.13,3.13,0,0,0,2.36-.91,3.67,3.67,0,0,0,.9-2.7v-2.29a3.69,3.69,0,0,0-.9-2.71,3.54,3.54,0,0,0-4.72,0,3.69,3.69,0,0,0-.89,2.71v2.29a3.66,3.66,0,0,0,.89,2.7A3.13,3.13,0,0,0,916.59,124.71Z" fill="#eef2f0"/><path d="M928.67,126.78V113.13h2.86v2.26h.13a4.53,4.53,0,0,1,1.35-1.84,3.82,3.82,0,0,1,2.48-.74,4.05,4.05,0,0,1,3.27,1.38,5.91,5.91,0,0,1,1.17,3.93v8.66h-2.86v-8.3c0-2.13-.86-3.2-2.58-3.2a4.09,4.09,0,0,0-1.09.15,3,3,0,0,0-.95.43,2.13,2.13,0,0,0-.67.73,2.09,2.09,0,0,0-.25,1v9.14Z" fill="#eef2f0"/><path d="M828,671.87a18.08,18.08,0,0,1-8.31-1.8,15.25,15.25,0,0,1-5.8-5.18,24,24,0,0,1-3.38-8.3,57.36,57.36,0,0,1,0-22.46,24,24,0,0,1,3.38-8.34,15.25,15.25,0,0,1,5.8-5.18,18.08,18.08,0,0,1,8.31-1.8q9.56,0,14.08,7t4.52,19.55q0,12.57-4.52,19.55T828,671.87Zm0-7a9,9,0,0,0,4.52-1.07,8.19,8.19,0,0,0,3.05-3A14.4,14.4,0,0,0,837.3,656a33.81,33.81,0,0,0,.52-6.14v-9a33.81,33.81,0,0,0-.52-6.14,14.4,14.4,0,0,0-1.69-4.74,8.26,8.26,0,0,0-3.05-3.05,10.08,10.08,0,0,0-9,0,8.26,8.26,0,0,0-3,3.05,14.4,14.4,0,0,0-1.69,4.74,33.86,33.86,0,0,0-.51,6.14v9a33.86,33.86,0,0,0,.51,6.14,14.4,14.4,0,0,0,1.69,4.74,8.19,8.19,0,0,0,3,3A9,9,0,0,0,828,664.82Z" fill="#d2d451"/><path d="M873,671l18.59-44.47h-19.4V636H865V619.69h34.77v7.2L881.7,671Z" fill="#d2d451"/><path d="M925.43,671.87a5.22,5.22,0,0,1-4-1.43,5,5,0,0,1-1.33-3.56v-1.11a5,5,0,0,1,1.33-3.56,6.42,6.42,0,0,1,8.08,0,5,5,0,0,1,1.32,3.56v1.11a5,5,0,0,1-1.32,3.56A5.22,5.22,0,0,1,925.43,671.87Z" fill="#d2d451"/><path d="M952.84,671v-6.91h14.41V625.72h-.59l-11.9,12.71-5.08-4.56,13.09-14.18h12.64v44.39H987.9V671Z" fill="#d2d451"/><path d="M1007.23,671v-6.91h14.41V625.72h-.59l-11.9,12.71-5.08-4.56,13.09-14.18h12.64v44.39h12.49V671Z" fill="#d2d451"/><path d="M1065.81,671.87a5.22,5.22,0,0,1-4-1.43,5,5,0,0,1-1.32-3.56v-1.11a5,5,0,0,1,1.32-3.56,6.44,6.44,0,0,1,8.09,0,5,5,0,0,1,1.32,3.56v1.11a5,5,0,0,1-1.32,3.56A5.23,5.23,0,0,1,1065.81,671.87Z" fill="#d2d451"/><path d="M1126.53,671h-34.84v-7.94l16.39-14.62a36.67,36.67,0,0,0,6-6.73,12.11,12.11,0,0,0,2.09-6.72v-1a7.7,7.7,0,0,0-2.24-5.88,8.44,8.44,0,0,0-6.06-2.13,10.19,10.19,0,0,0-3.71.62,8.67,8.67,0,0,0-2.76,1.73,9.7,9.7,0,0,0-2,2.57,15,15,0,0,0-1.21,3.16L1091,631.3a22.11,22.11,0,0,1,2.21-4.67,16.3,16.3,0,0,1,8.56-6.8,20.49,20.49,0,0,1,6.8-1,20,20,0,0,1,7,1.14,14.54,14.54,0,0,1,5.18,3.16,13.44,13.44,0,0,1,3.2,4.81,16.38,16.38,0,0,1,1.1,6.1,16.88,16.88,0,0,1-1,5.73,20.37,20.37,0,0,1-2.65,5,32.17,32.17,0,0,1-3.93,4.49q-2.25,2.13-4.74,4.33l-12.06,10.37h25.88Z" fill="#d2d451"/><path d="M1163.2,671.87a18,18,0,0,1-8.3-1.8,15.21,15.21,0,0,1-5.81-5.18,24,24,0,0,1-3.38-8.3,57.87,57.87,0,0,1,0-22.46,24,24,0,0,1,3.38-8.34,15.21,15.21,0,0,1,5.81-5.18,18,18,0,0,1,8.3-1.8q9.55,0,14.08,7t4.52,19.55q0,12.57-4.52,19.55T1163.2,671.87Zm0-7a9,9,0,0,0,4.52-1.07,8.19,8.19,0,0,0,3-3,14.18,14.18,0,0,0,1.69-4.74,32.94,32.94,0,0,0,.52-6.14v-9a32.94,32.94,0,0,0-.52-6.14,14.18,14.18,0,0,0-1.69-4.74,8.26,8.26,0,0,0-3-3.05,10.08,10.08,0,0,0-9,0,8.34,8.34,0,0,0-3,3.05,14.4,14.4,0,0,0-1.69,4.74,33.86,33.86,0,0,0-.51,6.14v9a33.86,33.86,0,0,0,.51,6.14,14.4,14.4,0,0,0,1.69,4.74,8.26,8.26,0,0,0,3,3A9,9,0,0,0,1163.2,664.82Z" fill="#d2d451"/><path d="M1235.31,671h-34.84v-7.94l16.39-14.62a36.67,36.67,0,0,0,6-6.73,12.11,12.11,0,0,0,2.09-6.72v-1a7.7,7.7,0,0,0-2.24-5.88,8.44,8.44,0,0,0-6.06-2.13,10.24,10.24,0,0,0-3.72.62,8.74,8.74,0,0,0-2.75,1.73,9.7,9.7,0,0,0-2,2.57,15,15,0,0,0-1.21,3.16l-7.28-2.79a21.63,21.63,0,0,1,2.21-4.67,16.3,16.3,0,0,1,8.56-6.8,20.49,20.49,0,0,1,6.8-1,20,20,0,0,1,7,1.14,14.54,14.54,0,0,1,5.18,3.16,13.44,13.44,0,0,1,3.2,4.81,16.38,16.38,0,0,1,1.1,6.1,16.88,16.88,0,0,1-1,5.73,20.37,20.37,0,0,1-2.65,5,32.17,32.17,0,0,1-3.93,4.49q-2.25,2.13-4.74,4.33l-12.06,10.37h25.88Z" fill="#d2d451"/><path d="M1272,671.87a18,18,0,0,1-8.3-1.8,15.28,15.28,0,0,1-5.81-5.18,24,24,0,0,1-3.38-8.3,57.87,57.87,0,0,1,0-22.46,24,24,0,0,1,3.38-8.34,15.28,15.28,0,0,1,5.81-5.18,18,18,0,0,1,8.3-1.8q9.55,0,14.08,7t4.52,19.55q0,12.57-4.52,19.55T1272,671.87Zm0-7a9,9,0,0,0,4.52-1.07,8.19,8.19,0,0,0,3-3,14.18,14.18,0,0,0,1.69-4.74,32.94,32.94,0,0,0,.52-6.14v-9a32.94,32.94,0,0,0-.52-6.14,14.18,14.18,0,0,0-1.69-4.74,8.26,8.26,0,0,0-3-3.05,10.08,10.08,0,0,0-9,0,8.34,8.34,0,0,0-3,3.05,14.4,14.4,0,0,0-1.69,4.74,33.86,33.86,0,0,0-.51,6.14v9a33.86,33.86,0,0,0,.51,6.14,14.4,14.4,0,0,0,1.69,4.74,8.26,8.26,0,0,0,3,3A9,9,0,0,0,1272,664.82Z" fill="#d2d451"/><path d="M743.84,759.38v-4.93h10.29V727h-.42l-8.5,9.09-3.63-3.26,9.35-10.13h9v31.71h8.92v4.93Z" fill="#d2d451"/><path d="M801.22,759.38H776.34v-5.67l11.71-10.44a25.76,25.76,0,0,0,4.28-4.81,8.66,8.66,0,0,0,1.49-4.8V733a5.49,5.49,0,0,0-1.6-4.2,6,6,0,0,0-4.33-1.53,7.1,7.1,0,0,0-2.65.45,6.31,6.31,0,0,0-2,1.23,7,7,0,0,0-1.39,1.84A10.39,10.39,0,0,0,781,733l-5.2-2a15.82,15.82,0,0,1,1.58-3.33,11.67,11.67,0,0,1,6.12-4.86,16.11,16.11,0,0,1,9.84.08,10.63,10.63,0,0,1,3.7,2.26,9.5,9.5,0,0,1,2.28,3.44,11.66,11.66,0,0,1,.79,4.36,12.06,12.06,0,0,1-.68,4.09,14.93,14.93,0,0,1-1.89,3.57,22.61,22.61,0,0,1-2.81,3.2q-1.61,1.53-3.39,3.1l-8.61,7.4h18.48Z" fill="#d2d451"/><path d="M814.56,739.38a3.75,3.75,0,0,1-2.89-1,3.6,3.6,0,0,1-.94-2.55V735a3.6,3.6,0,0,1,.94-2.54,4.57,4.57,0,0,1,5.78,0,3.6,3.6,0,0,1,.94,2.54v.79a3.6,3.6,0,0,1-.94,2.55A3.77,3.77,0,0,1,814.56,739.38Zm0,20.63a3.75,3.75,0,0,1-2.89-1,3.6,3.6,0,0,1-.94-2.55v-.78a3.6,3.6,0,0,1,.94-2.55,4.6,4.6,0,0,1,5.78,0,3.6,3.6,0,0,1,.94,2.55v.78a3.6,3.6,0,0,1-.94,2.55A3.77,3.77,0,0,1,814.56,760Z" fill="#d2d451"/><path d="M838.55,737.81q3.42,0,5-1.45a4.7,4.7,0,0,0,1.63-3.7v-.37a4.76,4.76,0,0,0-1.57-3.85,6.32,6.32,0,0,0-4.26-1.34,8,8,0,0,0-4.46,1.18,9.79,9.79,0,0,0-3.1,3.28l-3.93-3.41a17,17,0,0,1,1.89-2.31,10.48,10.48,0,0,1,2.46-1.92,13.91,13.91,0,0,1,3.21-1.31,15.26,15.26,0,0,1,4.09-.5,17.37,17.37,0,0,1,4.78.63,11,11,0,0,1,3.78,1.86,8.94,8.94,0,0,1,2.47,3,8.67,8.67,0,0,1,.89,4,8.83,8.83,0,0,1-.55,3.15,8.16,8.16,0,0,1-3.78,4.25,10.52,10.52,0,0,1-2.71,1v.26a11.24,11.24,0,0,1,3,1,8.63,8.63,0,0,1,2.44,1.83,8.39,8.39,0,0,1,1.65,2.68,9.52,9.52,0,0,1,.61,3.54,10,10,0,0,1-1,4.39,9.88,9.88,0,0,1-2.65,3.38,11.83,11.83,0,0,1-4.12,2.18A17.71,17.71,0,0,1,839,760a16.47,16.47,0,0,1-4.51-.55,13.12,13.12,0,0,1-3.44-1.47,12.71,12.71,0,0,1-2.62-2.1,17,17,0,0,1-2-2.44l4.35-3.41a18.65,18.65,0,0,0,1.45,2,7.79,7.79,0,0,0,3.94,2.6,9.64,9.64,0,0,0,2.8.37,7.51,7.51,0,0,0,5.15-1.6A5.67,5.67,0,0,0,846,749v-.37a5.11,5.11,0,0,0-1.89-4.3,8.57,8.57,0,0,0-5.36-1.47h-3.88v-5Z" fill="#d2d451"/><path d="M874.15,760a12.83,12.83,0,0,1-5.93-1.28,10.92,10.92,0,0,1-4.15-3.7,17.29,17.29,0,0,1-2.42-5.94,41.57,41.57,0,0,1,0-16,17.23,17.23,0,0,1,2.42-6,10.84,10.84,0,0,1,4.15-3.7,12.83,12.83,0,0,1,5.93-1.29q6.83,0,10.05,5t3.23,14q0,9-3.23,14T874.15,760Zm0-5a6.43,6.43,0,0,0,3.23-.76,5.85,5.85,0,0,0,2.18-2.18,10.36,10.36,0,0,0,1.2-3.38,23.58,23.58,0,0,0,.37-4.39v-6.4a23.47,23.47,0,0,0-.37-4.38,10.34,10.34,0,0,0-1.2-3.39,5.92,5.92,0,0,0-2.18-2.18,7.24,7.24,0,0,0-6.46,0,5.92,5.92,0,0,0-2.18,2.18,10.34,10.34,0,0,0-1.21,3.39,24.4,24.4,0,0,0-.36,4.38v6.4a24.52,24.52,0,0,0,.36,4.39,10.36,10.36,0,0,0,1.21,3.38,5.85,5.85,0,0,0,2.18,2.18A6.41,6.41,0,0,0,874.15,755Z" fill="#d2d451"/><path d="M896.09,732.08h5.73v4.52h.26a7.43,7.43,0,0,1,2.91-3.81,8.43,8.43,0,0,1,4.75-1.34,9.49,9.49,0,0,1,8,3.76q2.84,3.75,2.83,10.52t-2.83,10.53a9.49,9.49,0,0,1-8,3.75,8.28,8.28,0,0,1-4.75-1.36,7.56,7.56,0,0,1-2.91-3.78h-.26v15h-5.73Zm11.92,23a6.21,6.21,0,0,0,4.78-1.92,7.1,7.1,0,0,0,1.78-5.06v-4.73a7.1,7.1,0,0,0-1.78-5.06,6.21,6.21,0,0,0-4.78-1.92,7.33,7.33,0,0,0-4.41,1.29,4,4,0,0,0-1.78,3.38v9.35a4,4,0,0,0,1.78,3.38A7.33,7.33,0,0,0,908,755.08Z" fill="#d2d451"/><path d="M929.27,759.38v-27.3H935v4.52h.26a12.14,12.14,0,0,1,1-2,6.8,6.8,0,0,1,1.47-1.65,6.39,6.39,0,0,1,2-1.1,8.82,8.82,0,0,1,2.76-.4,9,9,0,0,1,4.93,1.37,7.79,7.79,0,0,1,3.15,4.2h.16a8,8,0,0,1,2.83-3.94,8.62,8.62,0,0,1,5.41-1.63,7.73,7.73,0,0,1,6.35,2.76c1.51,1.84,2.26,4.45,2.26,7.85v17.32h-5.72V742.74a7.79,7.79,0,0,0-1.21-4.75,4.47,4.47,0,0,0-3.83-1.6,7.56,7.56,0,0,0-2.1.29,5.35,5.35,0,0,0-1.76.86A4.4,4.4,0,0,0,951.8,739a4.28,4.28,0,0,0-.48,2v18.32H945.6V742.74q0-6.35-5-6.35a7.66,7.66,0,0,0-2.07.29,5.61,5.61,0,0,0-1.81.86,4.22,4.22,0,0,0-1.73,3.52v18.32Z" fill="#d2d451"/><path d="M976.84,746.31v-5.83h14.54v5.83Z" fill="#d2d451"/><path d="M1012.49,760a12.88,12.88,0,0,1-5.94-1.28,10.89,10.89,0,0,1-4.14-3.7,17.29,17.29,0,0,1-2.42-5.94,41.05,41.05,0,0,1,0-16,17.23,17.23,0,0,1,2.42-6,10.81,10.81,0,0,1,4.14-3.7,12.88,12.88,0,0,1,5.94-1.29q6.82,0,10,5t3.23,14q0,9-3.23,14T1012.49,760Zm0-5a6.37,6.37,0,0,0,3.22-.76,5.77,5.77,0,0,0,2.18-2.18,10.14,10.14,0,0,0,1.21-3.38,23.58,23.58,0,0,0,.37-4.39v-6.4a23.47,23.47,0,0,0-.37-4.38,10.12,10.12,0,0,0-1.21-3.39,5.85,5.85,0,0,0-2.18-2.18,7.22,7.22,0,0,0-6.45,0,5.85,5.85,0,0,0-2.18,2.18,10.12,10.12,0,0,0-1.21,3.39,24.35,24.35,0,0,0-.37,4.38v6.4a24.47,24.47,0,0,0,.37,4.39,10.14,10.14,0,0,0,1.21,3.38,5.77,5.77,0,0,0,2.18,2.18A6.41,6.41,0,0,0,1012.49,755Z" fill="#d2d451"/><path d="M1046.19,760a14.06,14.06,0,0,1-5.43-1,11.09,11.09,0,0,1-4-2.86,13,13,0,0,1-2.54-4.49,18.26,18.26,0,0,1-.89-5.94,23,23,0,0,1,1.2-7.5,29.92,29.92,0,0,1,7.33-11.69,32.79,32.79,0,0,1,4.59-3.8h7.88c-2.07,1.5-3.92,3-5.57,4.36a35.61,35.61,0,0,0-4.3,4.3,23.31,23.31,0,0,0-5,10.08l.37.11a13.61,13.61,0,0,1,1.33-2.08,9,9,0,0,1,1.79-1.7,8.26,8.26,0,0,1,2.34-1.16,10,10,0,0,1,3-.42,11.32,11.32,0,0,1,4.28.79,9.69,9.69,0,0,1,3.41,2.28,10.7,10.7,0,0,1,2.26,3.6,12.9,12.9,0,0,1,.81,4.67,13.31,13.31,0,0,1-.92,5.07,11.19,11.19,0,0,1-2.59,3.91,12.14,12.14,0,0,1-4.07,2.55A14.71,14.71,0,0,1,1046.19,760Zm0-4.83a6.91,6.91,0,0,0,5-1.7,6.63,6.63,0,0,0,1.78-5v-.73a6.59,6.59,0,0,0-1.78-5,8.14,8.14,0,0,0-10,0,6.59,6.59,0,0,0-1.78,5v.73a6.63,6.63,0,0,0,1.78,5A6.93,6.93,0,0,0,1046.19,755.18Z" fill="#d2d451"/><path d="M1072.07,739.38a3.74,3.74,0,0,1-2.88-1,3.61,3.61,0,0,1-1-2.55V735a3.6,3.6,0,0,1,1-2.54,4.56,4.56,0,0,1,5.77,0,3.6,3.6,0,0,1,1,2.54v.79a3.61,3.61,0,0,1-1,2.55A3.75,3.75,0,0,1,1072.07,739.38Zm0,20.63a3.74,3.74,0,0,1-2.88-1,3.61,3.61,0,0,1-1-2.55v-.78a3.61,3.61,0,0,1,1-2.55,4.59,4.59,0,0,1,5.77,0,3.61,3.61,0,0,1,1,2.55v.78a3.61,3.61,0,0,1-1,2.55A3.75,3.75,0,0,1,1072.07,760Z" fill="#d2d451"/><path d="M1096.07,737.81a7.42,7.42,0,0,0,5-1.45,4.72,4.72,0,0,0,1.62-3.7v-.37a4.76,4.76,0,0,0-1.57-3.85,6.31,6.31,0,0,0-4.25-1.34,8.1,8.1,0,0,0-4.47,1.18,9.86,9.86,0,0,0-3.09,3.28l-3.94-3.41a18.7,18.7,0,0,1,1.89-2.31,10.53,10.53,0,0,1,2.47-1.92,13.83,13.83,0,0,1,3.2-1.31,15.32,15.32,0,0,1,4.09-.5,17.32,17.32,0,0,1,4.78.63,11,11,0,0,1,3.78,1.86,8.94,8.94,0,0,1,2.47,3,9.27,9.27,0,0,1,.34,7.11,8.16,8.16,0,0,1-1.52,2.49,8.06,8.06,0,0,1-2.26,1.76,10.59,10.59,0,0,1-2.7,1v.26a11.17,11.17,0,0,1,3,1,8.37,8.37,0,0,1,4.1,4.51,9.73,9.73,0,0,1,.6,3.54,10,10,0,0,1-.94,4.39,9.91,9.91,0,0,1-2.66,3.38,11.74,11.74,0,0,1-4.12,2.18,17.64,17.64,0,0,1-5.35.76,16.55,16.55,0,0,1-4.52-.55,13.27,13.27,0,0,1-3.44-1.47,13,13,0,0,1-2.62-2.1,17.7,17.7,0,0,1-2-2.44l4.36-3.41a17.32,17.32,0,0,0,1.44,2,8.62,8.62,0,0,0,1.73,1.58,8.45,8.45,0,0,0,2.21,1,9.66,9.66,0,0,0,2.81.37,7.48,7.48,0,0,0,5.14-1.6,5.67,5.67,0,0,0,1.79-4.44v-.37a5.11,5.11,0,0,0-1.89-4.3,8.57,8.57,0,0,0-5.36-1.47h-3.88v-5Z" fill="#d2d451"/><path d="M1131.66,760a12.86,12.86,0,0,1-5.93-1.28,11,11,0,0,1-4.15-3.7,17.28,17.28,0,0,1-2.41-5.94,41.05,41.05,0,0,1,0-16,17.23,17.23,0,0,1,2.41-6,10.91,10.91,0,0,1,4.15-3.7,12.86,12.86,0,0,1,5.93-1.29q6.83,0,10.06,5t3.22,14q0,9-3.22,14T1131.66,760Zm0-5a6.41,6.41,0,0,0,3.23-.76,5.85,5.85,0,0,0,2.18-2.18,10.36,10.36,0,0,0,1.21-3.38,24.52,24.52,0,0,0,.36-4.39v-6.4a24.4,24.4,0,0,0-.36-4.38,10.34,10.34,0,0,0-1.21-3.39,5.92,5.92,0,0,0-2.18-2.18,7.24,7.24,0,0,0-6.46,0,5.92,5.92,0,0,0-2.18,2.18,10.11,10.11,0,0,0-1.2,3.39,23.47,23.47,0,0,0-.37,4.38v6.4a23.58,23.58,0,0,0,.37,4.39,10.14,10.14,0,0,0,1.2,3.38,5.85,5.85,0,0,0,2.18,2.18A6.43,6.43,0,0,0,1131.66,755Z" fill="#d2d451"/><path d="M1153.61,732.08h5.72v4.52h.26a7.54,7.54,0,0,1,2.91-3.81,8.46,8.46,0,0,1,4.76-1.34,9.49,9.49,0,0,1,8,3.76q2.84,3.75,2.83,10.52t-2.83,10.53a9.48,9.48,0,0,1-8,3.75,8.32,8.32,0,0,1-4.76-1.36,7.67,7.67,0,0,1-2.91-3.78h-.26v15h-5.72Zm11.91,23a6.21,6.21,0,0,0,4.78-1.92,7.11,7.11,0,0,0,1.79-5.06v-4.73a7.11,7.11,0,0,0-1.79-5.06,6.21,6.21,0,0,0-4.78-1.92,7.33,7.33,0,0,0-4.41,1.29,4,4,0,0,0-1.78,3.38v9.35a4,4,0,0,0,1.78,3.38A7.33,7.33,0,0,0,1165.52,755.08Z" fill="#d2d451"/><path d="M1186.79,759.38v-27.3h5.72v4.52h.26a12.14,12.14,0,0,1,1-2,7.06,7.06,0,0,1,1.48-1.65,6.34,6.34,0,0,1,2-1.1,8.82,8.82,0,0,1,2.76-.4,9,9,0,0,1,4.93,1.37,7.79,7.79,0,0,1,3.15,4.2h.16a8,8,0,0,1,2.84-3.94,8.59,8.59,0,0,1,5.4-1.63,7.77,7.77,0,0,1,6.36,2.76c1.5,1.84,2.26,4.45,2.26,7.85v17.32h-5.73V742.74a7.79,7.79,0,0,0-1.21-4.75,4.47,4.47,0,0,0-3.83-1.6,7.66,7.66,0,0,0-2.1.29,5.45,5.45,0,0,0-1.76.86,4.52,4.52,0,0,0-1.23,1.47,4.27,4.27,0,0,0-.47,2v18.32h-5.73V742.74q0-6.35-5-6.35a7.79,7.79,0,0,0-2.08.29,5.71,5.71,0,0,0-1.81.86A4.48,4.48,0,0,0,1193,739a4.39,4.39,0,0,0-.47,2v18.32Z" fill="#d2d451"/><path d="M1250.1,759.38V722.74h23.47V728H1256v10.18h15.91v5.25H1256v10.71h17.54v5.25Z" fill="#d2d451"/><path d="M1283.33,722.74h13a16.9,16.9,0,0,1,6.38,1.15,12.8,12.8,0,0,1,4.88,3.44,15.85,15.85,0,0,1,3.13,5.73,29.68,29.68,0,0,1,0,16,15.8,15.8,0,0,1-3.13,5.72,12.8,12.8,0,0,1-4.88,3.44,16.9,16.9,0,0,1-6.38,1.15h-13Zm13,31.39a8.84,8.84,0,0,0,6.62-2.57q2.52-2.56,2.52-7.56v-5.88q0-5-2.52-7.56a8.87,8.87,0,0,0-6.62-2.57h-7v26.14Z" fill="#d2d451"/><path d="M1333.53,728v31.39h-5.94V728h-10.92v-5.25h27.78V728Z" fill="#d2d451"/><path d="M877.47,291.43h28.39q8,0,12.54,4.51T923,308a16.52,16.52,0,0,1-1,6.11,12.61,12.61,0,0,1-2.58,4.14,9.93,9.93,0,0,1-3.58,2.39,14.77,14.77,0,0,1-3.95,1v.55a15.09,15.09,0,0,1,4.27.92,13.12,13.12,0,0,1,4.37,2.62,14.89,14.89,0,0,1,3.4,4.59,15.54,15.54,0,0,1,1.37,6.85,21,21,0,0,1-1.24,7.26,18.06,18.06,0,0,1-3.44,5.88,16.15,16.15,0,0,1-5.24,3.9,15.35,15.35,0,0,1-6.61,1.42H877.47Zm10.38,27.11h16.08a8.4,8.4,0,0,0,6-2,7.34,7.34,0,0,0,2.11-5.65V308a7.35,7.35,0,0,0-2.11-5.65,8.44,8.44,0,0,0-6-2H887.85Zm0,28.11h17.82a9,9,0,0,0,6.34-2.11,7.83,7.83,0,0,0,2.3-6.06v-3.13a7.83,7.83,0,0,0-2.3-6.06,9,9,0,0,0-6.34-2.12H887.85Z" fill="#d2d451"/><path d="M994.43,300.62v54.94H984V300.62H964.93v-9.19h48.61v9.19Z" fill="#d2d451"/><path d="M1058.56,291.43H1087q8,0,12.54,4.51t4.55,12a16.52,16.52,0,0,1-1,6.11,12.61,12.61,0,0,1-2.58,4.14,9.93,9.93,0,0,1-3.58,2.39,14.77,14.77,0,0,1-3.95,1v.55a15.09,15.09,0,0,1,4.27.92,13.12,13.12,0,0,1,4.37,2.62,14.89,14.89,0,0,1,3.4,4.59,15.54,15.54,0,0,1,1.37,6.85,21,21,0,0,1-1.24,7.26,18.06,18.06,0,0,1-3.44,5.88,16.15,16.15,0,0,1-5.24,3.9,15.37,15.37,0,0,1-6.62,1.42h-31.23Zm10.38,27.11H1085a8.4,8.4,0,0,0,6-2,7.34,7.34,0,0,0,2.11-5.65V308a7.35,7.35,0,0,0-2.11-5.65,8.44,8.44,0,0,0-6-2h-16.08Zm0,28.11h17.82a9,9,0,0,0,6.34-2.11,7.83,7.83,0,0,0,2.3-6.06v-3.13a7.83,7.83,0,0,0-2.3-6.06,9,9,0,0,0-6.34-2.12h-17.82Z" fill="#d2d451"/><path d="M1193,355.56l-5.79-17.36h-24l-5.6,17.36H1147l21.87-64.13h13l21.86,64.13ZM1175.42,301H1175l-9.28,28.3h18.93Z" fill="#d2d451"/><image width="512" height="512" transform="translate(967.59 874.94) scale(0.15)" xlink:href="banner-svg-btba-logo.png"/><g clip-path="url(#clip-path-3)"><line x1="1132.16" y1="876.28" x2="1114.9" y2="891.17" fill="#fff"/><g clip-path="url(#clip-path-3)"><path d="M1133.75,878.86v5c-.28-1.7-.63-3.39-1-5Z" fill="#231f20"/><path d="M1065.45,907.94h68.25a69.26,69.26,0,0,1-33.79,48.49c-17.41-9.24-30.39-27-34.49-48.48Z" fill="#231f20"/><path d="M1133.75,883.91v23.7c0,.11,0,.22,0,.33h-68.25V878.86h67.26c.41,1.66.76,3.35,1,5" fill="#231f20"/><path d="M1132,880v4.86q-.4-2.46-1-4.86Z" fill="#a8292e"/><path d="M1067.1,908h64.8a66.55,66.55,0,0,1-32.08,46.62c-16.53-8.87-28.85-26-32.74-46.61Z" fill="#a8292e"/><path d="M1132,884.88v22.78c0,.11,0,.22,0,.32h-64.8V880H1131q.58,2.4,1,4.86" fill="#a8292e"/><path d="M1133.08,899.13v8.48a.38.38,0,0,0,0,.1A161.06,161.06,0,0,0,1066,908v-9a191.81,191.81,0,0,0,67.07.19" fill="#231f20"/><path d="M1077.09,931.47c2-1.46,4-2.92,6-4.32,2.29-1.57,5.61-4.43,8.55-3.55s4.46,3.61,7.88,3.53c3.73-.08,5.69-3.42,9.12-4,2.57-.4,5.92,1.93,8,3.13s4.16,2.64,6.2,4c.76.52,2.78-.55,1.75-1.25-4.26-2.89-8.7-6.12-13.8-7.33-4.33-1-6.52,3.26-10.35,3.83-2.25.33-4.15-1.42-5.85-2.59a6.55,6.55,0,0,0-4.45-1.09c-2.12.18-4,1.51-5.82,2.57-3,1.82-5.87,4-8.72,6.07-1.24.91.63,1.55,1.47.93" fill="#231f20"/><polyline points="1066.69 907.37 1067.89 912.57 1069.71 918.34 1070.98 921.59 1073.3 926.55 1074.64 929.04 1075.38 930.31 1077.8 928.54 1081.67 925.85 1084.78 923.93 1087.77 922.37 1089.74 921.9 1091.69 921.97 1093.62 922.63 1095.71 924.04 1097.49 925.1 1099.4 925.61 1100.99 925.39 1102.77 924.61 1105.1 923.12 1107.56 921.87 1109.51 921.6 1112.18 922.19 1116.78 924.18 1119.33 925.65 1122.81 927.92 1124.54 929.08 1126.01 925.97 1128.86 919.41 1130.4 914.75 1131.35 911.15 1131.75 909.28 1132.14 907.24 1129.2 906.5 1125.44 905.95 1119.24 905.22 1108.32 904.45 1101.43 904.29 1093.84 904.37 1090 904.53 1083.8 904.93 1075.74 905.78 1069.87 906.63 1067.64 907.2 1066.41 907.24" fill="#fff"/><path d="M1077.1,922.44a1.34,1.34,0,0,1-1-.54,1.82,1.82,0,0,1-.35-.66l-2.43-8a1.38,1.38,0,0,1,.76-1.82l4.77-1.28a1.3,1.3,0,0,1,1.35.54,2.06,2.06,0,0,1,.31.61l2.42,8c0,.08,0,.14,0,.2a1.87,1.87,0,0,1,0,.53,1.18,1.18,0,0,1-.83,1.08l-4.76,1.29a1,1,0,0,1-.28,0m2-11.42-4.78,1.29c-.08,0-.22.29-.1.69l2.42,8a.91.91,0,0,0,.19.35c.12.15.23.2.29.19l4.75-1.29c.05,0,.13-.12.15-.3a.74.74,0,0,0,0-.26v-.06a.14.14,0,0,0,0-.07l-2.42-8a1.26,1.26,0,0,0-.16-.33.46.46,0,0,0-.29-.2" fill="#231f20"/><path d="M1083.17,920.82a1.36,1.36,0,0,1-1.06-.57,2.33,2.33,0,0,1-.27-.47l-.2-.63-2.27-7.52a1.61,1.61,0,0,1-.07-.72,1.18,1.18,0,0,1,.83-1.1l4.76-1.28a.86.86,0,0,1,.28,0,1.55,1.55,0,0,1,1.38,1.19l2.42,8a1.74,1.74,0,0,1,.06.84,1.17,1.17,0,0,1-.81,1l-4.77,1.29a.9.9,0,0,1-.28,0m2-11.42-4.78,1.29s-.12.12-.13.3a.85.85,0,0,0,0,.39l2.46,8.1a1,1,0,0,0,.14.24c.11.14.23.2.3.19l4.75-1.29s.12-.1.14-.25a1,1,0,0,0,0-.44l-2.42-8c-.11-.36-.35-.54-.46-.54" fill="#231f20"/><path d="M1077.1,922.44a1.31,1.31,0,0,1-1-.54l.77-.55a.38.38,0,0,0,.28.18l4.75-1.29c.05,0,.13-.12.15-.3l.11-1.2.75,1c.13.16.25.21.3.2l4.77-1.29s.11-.1.13-.25l1,.15a1.17,1.17,0,0,1-.81,1l-4.77,1.29a1.11,1.11,0,0,1-.74,0,1.07,1.07,0,0,1-.57.38l-4.76,1.29a.9.9,0,0,1-.28,0" fill="#231f20"/><path d="M1077.1,922.44a1.31,1.31,0,0,1-1-.54l-.18-.23.14-.25c.11-.21.23-.41.36-.61a7,7,0,0,1,.55-.73,9,9,0,0,1,4.61-2.9l.13,0,.06,0,.14,0,.08,0a9.51,9.51,0,0,1,6.85,1l.28.16-.06.3a1.17,1.17,0,0,1-.81,1l-4.77,1.29a1.11,1.11,0,0,1-.74,0,1.07,1.07,0,0,1-.57.38l-.27-.87c.05,0,.13-.12.15-.3l.11-1.2.75,1c.13.16.25.21.3.2l4.75-1.28a8.53,8.53,0,0,0-5.73-.67l-.28.07-.09,0a8.12,8.12,0,0,0-4.14,2.6,5.62,5.62,0,0,0-.48.64l-.15.23h.06l1.85-.5.26.87-1.85.5a.9.9,0,0,1-.28,0" fill="#231f20"/><polygon points="1076.85 920.48 1074.35 911.82 1075.28 911.58 1077.78 920.25 1076.85 920.48" fill="#231f20"/><polygon points="1086.59 917.73 1084.19 909.62 1085.12 909.38 1087.52 917.49 1086.59 917.73" fill="#231f20"/><polygon points="1079.44 919.09 1079.39 918.87 1085.56 917.43 1085.62 917.65 1079.44 919.09" fill="#231f20"/><polygon points="1076.84 921.16 1076.77 920.94 1087.53 918.15 1087.59 918.37 1076.84 921.16" fill="#231f20"/><polygon points="1077.63 920.28 1077.57 920.06 1086.98 917.68 1087.04 917.9 1077.63 920.28" fill="#231f20"/><path d="M1094.3,918.92a1.36,1.36,0,0,1-.84-.79,1.83,1.83,0,0,1-.17-.74l-.22-8.34a1.37,1.37,0,0,1,1.21-1.55l4.93,0a1.31,1.31,0,0,1,1.16.88,2,2,0,0,1,.14.67l.22,8.36a1.27,1.27,0,0,1,0,.2,1.86,1.86,0,0,1-.11.52,1.19,1.19,0,0,1-1.09.82l-4.94,0a1.33,1.33,0,0,1-.28,0m5-10.49-5,0c-.08,0-.28.23-.27.64l.22,8.35a.86.86,0,0,0,.09.39c.07.17.16.25.22.25l4.93,0s.15-.08.22-.25a.8.8,0,0,0,0-.26v-.13l-.22-8.35a1,1,0,0,0-.07-.36c-.07-.17-.16-.26-.23-.28" fill="#231f20"/><path d="M1100.58,919a1.37,1.37,0,0,1-.87-.83,2.32,2.32,0,0,1-.13-.52l0-.66-.21-7.86a1.72,1.72,0,0,1,.13-.71,1.19,1.19,0,0,1,1.08-.84l4.94,0a.9.9,0,0,1,.28,0,1.57,1.57,0,0,1,1,1.52l.22,8.35a1.83,1.83,0,0,1-.17.82,1.18,1.18,0,0,1-1,.73l-4.94,0a1,1,0,0,1-.29,0m5-10.48-5,0s-.15.08-.21.25a1.06,1.06,0,0,0-.07.38l.23,8.47a1.35,1.35,0,0,0,.07.27c.07.16.17.26.23.26h4.93s.14-.07.21-.2a1.14,1.14,0,0,0,.08-.43l-.22-8.35c0-.38-.2-.62-.3-.64" fill="#231f20"/><path d="M1094.3,918.92a1.33,1.33,0,0,1-.84-.79l.88-.33c.07.16.17.24.22.24l4.93,0s.15-.08.22-.25l.43-1.12.46,1.13a.46.46,0,0,0,.24.27h4.93s.14-.07.21-.2l.87.39a1.18,1.18,0,0,1-1,.73l-4.94,0a1.11,1.11,0,0,1-.7-.25,1.08,1.08,0,0,1-.65.22l-4.94,0a1.33,1.33,0,0,1-.28,0" fill="#231f20"/><path d="M1094.3,918.92a1.33,1.33,0,0,1-.84-.79l-.12-.27.2-.21c.16-.17.34-.33.52-.49a7,7,0,0,1,.71-.56A9.08,9.08,0,0,1,1100,915h.42a9.56,9.56,0,0,1,6.35,2.76l.22.23-.13.27a1.18,1.18,0,0,1-1,.73l-4.94,0a1.11,1.11,0,0,1-.7-.25,1.08,1.08,0,0,1-.65.22l0-.91c.06,0,.16-.08.23-.25l.43-1.12.46,1.13a.46.46,0,0,0,.24.27h4.92a8.65,8.65,0,0,0-5.35-2.16H1100a8.18,8.18,0,0,0-4.68,1.41,6.6,6.6,0,0,0-.63.5l-.21.19h2l0,.91h-1.93a1.33,1.33,0,0,1-.28,0" fill="#231f20"/><polygon points="1094.58 916.97 1094.47 907.95 1095.42 907.97 1095.54 916.98 1094.58 916.97" fill="#231f20"/><polygon points="1104.7 916.89 1104.53 908.43 1105.49 908.44 1105.66 916.9 1104.7 916.89" fill="#231f20"/><polygon points="1097.45 916.31 1097.46 916.08 1103.79 916.32 1103.79 916.55 1097.45 916.31" fill="#231f20"/><polygon points="1094.39 917.61 1094.39 917.38 1105.5 917.54 1105.5 917.76 1094.39 917.61" fill="#231f20"/><polygon points="1095.39 916.98 1095.39 916.75 1105.09 916.94 1105.1 917.17 1095.39 916.98" fill="#231f20"/><path d="M1112.19,919.41a1.31,1.31,0,0,1-.5-1,2,2,0,0,1,.12-.74l2.88-7.84a1.38,1.38,0,0,1,1.7-1l4.57,1.84a1.3,1.3,0,0,1,.75,1.25,1.75,1.75,0,0,1-.11.67l-2.89,7.85a1.82,1.82,0,0,1-.08.19,1.9,1.9,0,0,1-.3.44,1.19,1.19,0,0,1-1.32.36l-4.57-1.84a1,1,0,0,1-.25-.14m8.47-7.91-4.59-1.85c-.07,0-.35.1-.49.49L1112.7,918a.93.93,0,0,0-.06.4c0,.19.06.29.11.31l4.57,1.84s.18,0,.3-.15a.78.78,0,0,0,.15-.22l0,0s0-.05,0-.07l2.88-7.84a1,1,0,0,0,.07-.36.46.46,0,0,0-.11-.34" fill="#231f20"/><path d="M1118,921.77a1.34,1.34,0,0,1-.5-1.09,1.74,1.74,0,0,1,.07-.53l.22-.63,2.71-7.37a1.73,1.73,0,0,1,.38-.62,1.18,1.18,0,0,1,1.32-.37l4.58,1.84a1,1,0,0,1,.25.14,1.57,1.57,0,0,1,.38,1.78l-2.88,7.85a1.9,1.9,0,0,1-.46.7,1.17,1.17,0,0,1-1.24.29l-4.58-1.84a1.28,1.28,0,0,1-.25-.15m8.48-7.91L1121.9,912c-.05,0-.17,0-.29.16a.75.75,0,0,0-.21.32l-2.92,8a1,1,0,0,0,0,.27c0,.18.06.3.12.33l4.58,1.84a.37.37,0,0,0,.26-.12,1,1,0,0,0,.24-.37l2.88-7.84a.74.74,0,0,0,0-.71" fill="#231f20"/><path d="M1112.19,919.41a1.34,1.34,0,0,1-.5-1l1,0c0,.17.06.28.11.3l4.57,1.84s.18,0,.3-.15l.81-.89,0,1.23a.4.4,0,0,0,.12.34l4.58,1.84a.37.37,0,0,0,.26-.12l.67.69a1.17,1.17,0,0,1-1.24.29l-4.58-1.84a1.14,1.14,0,0,1-.56-.5,1,1,0,0,1-.69,0l-4.57-1.84a1,1,0,0,1-.25-.14" fill="#231f20"/><path d="M1112.19,919.41a1.38,1.38,0,0,1-.5-1v-.29l.26-.12c.21-.09.43-.18.66-.26a7.37,7.37,0,0,1,.87-.26,9.08,9.08,0,0,1,5.43.46l.12.05.07,0,.12,0,.08,0a9.54,9.54,0,0,1,4.88,4.91l.12.29-.22.21a1.17,1.17,0,0,1-1.24.29l-4.58-1.84a1.14,1.14,0,0,1-.56-.5,1,1,0,0,1-.69,0l.31-.86s.18,0,.3-.15l.81-.89,0,1.23a.4.4,0,0,0,.12.34l4.56,1.83a8.55,8.55,0,0,0-4.17-4l-.26-.12-.09,0a8,8,0,0,0-4.87-.42,6.23,6.23,0,0,0-.77.22l-.26.1,0,0,1.78.72-.31.86-1.78-.72a1,1,0,0,1-.25-.14" fill="#231f20"/><polygon points="1113.17 917.7 1116.39 909.28 1117.28 909.65 1114.05 918.07 1113.17 917.7" fill="#231f20"/><polygon points="1122.6 921.37 1125.57 913.45 1126.45 913.81 1123.49 921.74 1122.6 921.37" fill="#231f20"/><polygon points="1116.08 918.15 1116.17 917.94 1121.97 920.51 1121.88 920.72 1116.08 918.15" fill="#231f20"/><polygon points="1112.75 918.23 1112.83 918.02 1123.1 922.27 1123.02 922.48 1112.75 918.23" fill="#231f20"/><polygon points="1113.92 918.01 1114 917.8 1122.95 921.56 1122.87 921.77 1113.92 918.01" fill="#231f20"/><polygon points="1103.44 929.88 1104.25 930.54 1105.06 930.54 1105.52 930.97 1105.52 932.6 1104.94 933.41 1105.06 935.4 1104.48 936.75 1104.48 938.47 1104.48 940.5 1104.02 942.52 1103.44 943.42 1102.29 945.37 1101.77 946.55 1101.77 948.5 1100.91 949.37 1100.22 949.37 1099.57 948.93 1099.57 948.18 1098.49 947.2 1097.46 946.23 1096.19 944.72 1095.73 943.42 1095.73 941.79 1095.73 940.5 1096.31 938.58 1097.57 936.43 1098.26 935.4 1099.07 933.75 1099.57 932.71 1100.62 931.45 1101.77 930.65 1103.44 929.88" fill="#fff"/><polygon points="1103.44 929.88 1104.25 930.54 1105.06 930.54 1105.52 930.97 1105.52 932.6 1104.94 933.41 1105.06 935.4 1104.48 936.75 1104.48 938.47 1104.48 940.5 1104.02 942.52 1103.44 943.42 1102.29 945.37 1101.77 946.55 1101.77 948.5 1100.91 949.37 1100.22 949.37 1099.57 948.93 1099.57 948.18 1098.49 947.2 1097.46 946.23 1096.19 944.72 1095.73 943.42 1095.73 941.79 1095.73 940.5 1096.31 938.58 1097.57 936.43 1098.26 935.4 1099.07 933.75 1099.57 932.71 1100.62 931.45 1101.77 930.65 1103.44 929.88" fill="none" stroke="#231f20" stroke-miterlimit="10"/><path d="M1088.2,896.82c0,.14,0,.22-.1.25a.94.94,0,0,1-.32,0q-.69.06-2,.06a19,19,0,0,1-2.1-.06c-.2,0-.31-.12-.31-.26q0-.76.09-2.31c0-1,.08-1.8.08-2.32,0-.25-.08-.4-.25-.43a22.26,22.26,0,0,0-2.74-.08,23,23,0,0,0-2.78.08c-.16,0-.24.17-.24.43,0,.51,0,1.27.05,2.28s.06,1.77.06,2.27a.31.31,0,0,1-.31.34,20.31,20.31,0,0,1-2.13.06,18.85,18.85,0,0,1-2-.06c-.21,0-.32-.13-.32-.3,0-.7,0-1.76.11-3.17s.12-2.48.12-3.19,0-1.88-.11-3.39-.11-2.64-.11-3.4q0-.21.24-.21l1.06,0,1.06,0,1.09,0,1.1,0c.13,0,.19.06.19.17q0,.74-.12,2.19c-.09,1-.13,1.7-.13,2.19,0,.22.07.36.22.4a58.44,58.44,0,0,0,5.72,0,.36.36,0,0,0,.27-.4c0-.47,0-1.18-.08-2.12s-.08-1.66-.08-2.13a.26.26,0,0,1,.29-.3l1,0,1,0,1,0,1,0c.22,0,.33.08.33.23,0,.75,0,1.88-.11,3.38s-.11,2.64-.11,3.39,0,1.77.12,3.19.12,2.47.12,3.17" fill="#f1f2f2"/><path d="M1101.35,886.44c0,.13-.08.19-.25.19s-1.43,0-3.42-.14c0,1.64-.07,2.79-.07,3.44s0,1.91.11,3.45.11,2.69.11,3.46c0,.12,0,.2-.1.23a1.23,1.23,0,0,1-.32,0,16.88,16.88,0,0,1-2,.08,16.15,16.15,0,0,1-2.05-.08c-.22,0-.32-.13-.32-.3,0-.76,0-1.91.11-3.45s.12-2.68.12-3.44c0-.51,0-1.64-.1-3.39-1.51.13-2.72.19-3.62.19-.12,0-.18,0-.18-.1a4.71,4.71,0,0,1,.16-.75c.12-.45.19-.73.2-.82,0-.31,0-.61.08-.92.06-.49.15-.73.28-.73h.16a52.31,52.31,0,0,0,5.43.2c.69,0,1.94-.06,3.77-.18l1.49-.1a.58.58,0,0,1,.26,0s0,.08,0,.19,0,.41,0,.73,0,.58,0,.73a6.59,6.59,0,0,0,.07.71,5.2,5.2,0,0,1,.08.71" fill="#f1f2f2"/><path d="M1110.31,892.64a4.12,4.12,0,0,1-1.94,3.39,9.07,9.07,0,0,1-4.15,1.59h-.15c-.17,0-.56-.46-1.15-1.37a5.51,5.51,0,0,1-.9-1.67c0-.07.06-.12.17-.14a13.23,13.23,0,0,0,2.18-.54,1.63,1.63,0,0,0,1.18-1.5,2.18,2.18,0,0,0-.77-1.41c-.9-.89-1.38-1.38-1.46-1.47a3.61,3.61,0,0,1-.78-2.24,3.43,3.43,0,0,1,1.92-3,9.41,9.41,0,0,1,3.85-1.27h.19c.12,0,.21.08.27.23a27.2,27.2,0,0,0,1.38,2.57.26.26,0,0,1,0,.1c0,.11-.07.17-.2.17l-.31,0-.33,0a3.11,3.11,0,0,0-1.43.32,1.14,1.14,0,0,0-.74,1,2.41,2.41,0,0,0,.82,1.46l1.51,1.64a3.53,3.53,0,0,1,.81,2.13" fill="#f1f2f2"/><path d="M1127.17,896.88c0,.12-.1.2-.29.24a13.67,13.67,0,0,1-2.11.08,15.09,15.09,0,0,1-2.09-.08.57.57,0,0,1-.49-.43c-.25-.94-.45-1.44-.6-1.51s-1.13-.06-3-.06a11.66,11.66,0,0,0-2,.08,2.53,2.53,0,0,0-.44,1c-.14.54-.31.83-.52.87a20.21,20.21,0,0,1-2.59.08c-1.16,0-1.73-.09-1.73-.28s.85-2.24,2.56-6.23c1.86-4.3,2.86-6.67,3-7.1.09-.24.2-.37.32-.37s.52,0,1,0,.74.05,1,.05l.9,0c.4,0,.69,0,.89,0s.28.11.4.32c.37.69,1.45,3,3.24,7s2.71,6.11,2.71,6.29m-8.05-8.87a18.31,18.31,0,0,0-.81,1.86,8.63,8.63,0,0,0-.61,1.78c0,.12.23.18.68.19.23,0,.62,0,1.16,0s.77-.05.83-.15a.46.46,0,0,0,0-.14,9,9,0,0,0-.52-1.77,12.06,12.06,0,0,0-.75-1.79" fill="#f1f2f2"/></g></g><path d="M306.69,154.26H298.4v8h-3V143.92h3v7.71h8.29v-7.71h3v18.32h-3Z" fill="#eef2f0"/><path d="M326.59,162.24a2.29,2.29,0,0,1-1.73-.64,2.93,2.93,0,0,1-.74-1.65H324a3.36,3.36,0,0,1-1.44,2,4.78,4.78,0,0,1-2.55.65,4.51,4.51,0,0,1-3.27-1.1,3.92,3.92,0,0,1-1.14-3,3.5,3.5,0,0,1,1.49-3.07,7.62,7.62,0,0,1,4.34-1h2.47v-1.16a2.65,2.65,0,0,0-.68-1.94,2.94,2.94,0,0,0-2.13-.68,3.4,3.4,0,0,0-2,.52,4.71,4.71,0,0,0-1.29,1.34l-1.7-1.55A5.43,5.43,0,0,1,318,149a6.18,6.18,0,0,1,3.23-.75,6,6,0,0,1,4.07,1.24,4.42,4.42,0,0,1,1.42,3.54v6.85h1.44v2.34Zm-5.77-1.87a3.78,3.78,0,0,0,2.2-.59,1.82,1.82,0,0,0,.87-1.58v-2h-2.42c-2,0-3,.61-3,1.83v.48a1.62,1.62,0,0,0,.61,1.38A2.84,2.84,0,0,0,320.82,160.37Z" fill="#eef2f0"/><path d="M333.63,162.24V148.59h2.86v2.62h.13a3.59,3.59,0,0,1,1.21-1.83,3.75,3.75,0,0,1,2.54-.79h.76v2.75H340a5.08,5.08,0,0,0-2.62.56,1.78,1.78,0,0,0-.9,1.62v8.72Z" fill="#eef2f0"/><path d="M349.51,162.24l-4.65-13.65h2.84l2.07,6.22,1.39,4.78h.16l1.39-4.78,2.13-6.22h2.73l-4.7,13.65Z" fill="#eef2f0"/><path d="M372.37,162.24a2.29,2.29,0,0,1-1.73-.64,2.93,2.93,0,0,1-.74-1.65h-.13a3.36,3.36,0,0,1-1.44,2,4.78,4.78,0,0,1-2.55.65,4.53,4.53,0,0,1-3.27-1.1,3.92,3.92,0,0,1-1.14-3,3.5,3.5,0,0,1,1.49-3.07,7.62,7.62,0,0,1,4.34-1h2.47v-1.16a2.65,2.65,0,0,0-.68-1.94,2.94,2.94,0,0,0-2.13-.68,3.4,3.4,0,0,0-2,.52,4.71,4.71,0,0,0-1.29,1.34l-1.7-1.55a5.43,5.43,0,0,1,1.91-1.9,6.18,6.18,0,0,1,3.23-.75,6,6,0,0,1,4.07,1.24,4.42,4.42,0,0,1,1.42,3.54v6.85H374v2.34Zm-5.77-1.87a3.78,3.78,0,0,0,2.2-.59,1.82,1.82,0,0,0,.87-1.58v-2h-2.42c-2,0-3,.61-3,1.83v.48a1.62,1.62,0,0,0,.61,1.38A2.84,2.84,0,0,0,366.6,160.37Z" fill="#eef2f0"/><path d="M379.41,162.24V148.59h2.86v2.62h.13a3.59,3.59,0,0,1,1.21-1.83,3.75,3.75,0,0,1,2.54-.79h.76v2.75h-1.12a5.08,5.08,0,0,0-2.62.56,1.78,1.78,0,0,0-.9,1.62v8.72Z" fill="#eef2f0"/><path d="M400.54,160h-.13a3.8,3.8,0,0,1-1.46,1.89,4.11,4.11,0,0,1-2.38.68,4.72,4.72,0,0,1-4-1.87,10.47,10.47,0,0,1,0-10.53,4.73,4.73,0,0,1,4-1.88,4.26,4.26,0,0,1,2.38.67,3.77,3.77,0,0,1,1.46,1.91h.13v-8h2.86v19.43h-2.86Zm-3.1.11a3.68,3.68,0,0,0,2.21-.65,2,2,0,0,0,.89-1.69v-4.67a2,2,0,0,0-.89-1.7,3.75,3.75,0,0,0-2.21-.64,3.11,3.11,0,0,0-2.39,1,3.58,3.58,0,0,0-.89,2.53v2.36a3.61,3.61,0,0,0,.89,2.54A3.11,3.11,0,0,0,397.44,160.09Z" fill="#eef2f0"/><path d="M430.94,159.48h-.11a3.51,3.51,0,0,1-1.56,2.2,5.87,5.87,0,0,1-3.37.87,7.38,7.38,0,0,1-3-.61,6.63,6.63,0,0,1-2.4-1.81,8.58,8.58,0,0,1-1.58-3,14.94,14.94,0,0,1,0-8.14,8.63,8.63,0,0,1,1.63-3,6.8,6.8,0,0,1,2.52-1.82,8.45,8.45,0,0,1,3.28-.62,7.58,7.58,0,0,1,4.18,1.09,7.3,7.3,0,0,1,2.65,3l-2.42,1.42a4.76,4.76,0,0,0-1.62-2.1,5.17,5.17,0,0,0-6.29.59,5.49,5.49,0,0,0-1.33,3.95v3a5.49,5.49,0,0,0,1.33,3.95,4.6,4.6,0,0,0,3.5,1.4,6.05,6.05,0,0,0,1.66-.23,4.06,4.06,0,0,0,1.37-.66,3.28,3.28,0,0,0,.95-1.08,3,3,0,0,0,.35-1.51V155h-3.78v-2.55h6.65v9.77h-2.6Z" fill="#eef2f0"/><path d="M445.77,162.55a8.45,8.45,0,0,1-3.93-.84,8.86,8.86,0,0,1-2.77-2.25l2.05-1.92a6.8,6.8,0,0,0,2.14,1.78,5.64,5.64,0,0,0,2.66.61,3.9,3.9,0,0,0,2.66-.79,2.7,2.7,0,0,0,.89-2.13,2.3,2.3,0,0,0-.63-1.7,4.39,4.39,0,0,0-2.23-.95l-1.63-.29a7.86,7.86,0,0,1-4-1.75,4.55,4.55,0,0,1-1.34-3.47,5.24,5.24,0,0,1,.46-2.19,4.57,4.57,0,0,1,1.29-1.65,5.8,5.8,0,0,1,2-1,8.75,8.75,0,0,1,2.65-.37,8.38,8.38,0,0,1,3.6.72,7.27,7.27,0,0,1,2.6,2.09l-2.08,1.84a5.2,5.2,0,0,0-1.73-1.47,5.29,5.29,0,0,0-2.55-.55,4.1,4.1,0,0,0-2.44.63,2.12,2.12,0,0,0-.87,1.83,2.07,2.07,0,0,0,.71,1.72,5.24,5.24,0,0,0,2.21.86l1.63.34a7.72,7.72,0,0,1,4,1.78,4.7,4.7,0,0,1,1.27,3.47,5.87,5.87,0,0,1-.45,2.33,5,5,0,0,1-1.3,1.8,5.91,5.91,0,0,1-2.08,1.16A9,9,0,0,1,445.77,162.55Z" fill="#eef2f0"/><path d="M470.05,162.24l-1.65-5h-6.86l-1.6,5h-3l6.25-18.32h3.73l6.25,18.32Zm-5-15.59h-.14l-2.65,8.08h5.41Z" fill="#eef2f0"/><path d="M484.09,162.55a8.38,8.38,0,0,1-3.92-.84,8.75,8.75,0,0,1-2.77-2.25l2.05-1.92a6.7,6.7,0,0,0,2.14,1.78,5.58,5.58,0,0,0,2.66.61,3.87,3.87,0,0,0,2.65-.79,2.67,2.67,0,0,0,.89-2.13,2.3,2.3,0,0,0-.63-1.7,4.35,4.35,0,0,0-2.23-.95l-1.62-.29a7.82,7.82,0,0,1-4-1.75,4.55,4.55,0,0,1-1.34-3.47,5.08,5.08,0,0,1,.46-2.19A4.46,4.46,0,0,1,479.7,145a5.84,5.84,0,0,1,2-1,8.75,8.75,0,0,1,2.65-.37,8.32,8.32,0,0,1,3.6.72,7.19,7.19,0,0,1,2.6,2.09l-2.07,1.84a5,5,0,0,0-4.28-2,4.07,4.07,0,0,0-2.44.63,2.12,2.12,0,0,0-.87,1.83,2.07,2.07,0,0,0,.71,1.72,5.19,5.19,0,0,0,2.2.86l1.63.34a7.68,7.68,0,0,1,4,1.78,4.66,4.66,0,0,1,1.27,3.47,6,6,0,0,1-.44,2.33A5,5,0,0,1,489,161a6,6,0,0,1-2.09,1.16A9,9,0,0,1,484.09,162.55Z" fill="#eef2f0"/><path d="M512.55,146.54v15.7h-3v-15.7h-5.46v-2.62H518v2.62Z" fill="#eef2f0"/><path d="M531.47,162.24a2.29,2.29,0,0,1-1.73-.64A2.85,2.85,0,0,1,529,160h-.13a3.41,3.41,0,0,1-1.45,2,4.77,4.77,0,0,1-2.54.65,4.49,4.49,0,0,1-3.27-1.1,3.92,3.92,0,0,1-1.14-3,3.49,3.49,0,0,1,1.48-3.07,7.67,7.67,0,0,1,4.34-1h2.47v-1.16a2.65,2.65,0,0,0-.68-1.94,2.94,2.94,0,0,0-2.13-.68,3.42,3.42,0,0,0-2,.52,4.82,4.82,0,0,0-1.28,1.34L521,150.92a5.46,5.46,0,0,1,1.92-1.9,6.15,6.15,0,0,1,3.23-.75,6,6,0,0,1,4.06,1.24,4.42,4.42,0,0,1,1.42,3.54v6.85h1.45v2.34Zm-5.77-1.87a3.76,3.76,0,0,0,2.2-.59,1.82,1.82,0,0,0,.87-1.58v-2h-2.41q-3,0-3,1.83v.48a1.62,1.62,0,0,0,.62,1.38A2.8,2.8,0,0,0,525.7,160.37Z" fill="#eef2f0"/><path d="M540,146.15a1.75,1.75,0,0,1-1.3-.42,1.49,1.49,0,0,1-.4-1.08v-.45a1.48,1.48,0,0,1,.4-1.07,1.75,1.75,0,0,1,1.3-.42,1.7,1.7,0,0,1,1.29.42,1.52,1.52,0,0,1,.39,1.07v.45a1.52,1.52,0,0,1-.39,1.08A1.7,1.7,0,0,1,540,146.15Zm-1.44,2.44h2.86v13.65h-2.86Z" fill="#eef2f0"/><path d="M546.73,148.59h2.78l1.39,5.72,1.23,5.17h.08l1.42-5.17,1.65-5.72h2.58l1.68,5.72,1.44,5.17h.08l1.21-5.17,1.41-5.72h2.65l-3.67,13.65h-3.23L557.65,156l-1.11-3.84h0L555.42,156l-1.82,6.22h-3.15Z" fill="#eef2f0"/><path d="M581.4,162.24a2.29,2.29,0,0,1-1.73-.64,2.85,2.85,0,0,1-.73-1.65h-.14a3.36,3.36,0,0,1-1.44,2,4.78,4.78,0,0,1-2.55.65,4.48,4.48,0,0,1-3.26-1.1,3.89,3.89,0,0,1-1.15-3,3.5,3.5,0,0,1,1.49-3.07,7.64,7.64,0,0,1,4.34-1h2.47v-1.16a2.65,2.65,0,0,0-.68-1.94,2.94,2.94,0,0,0-2.13-.68,3.42,3.42,0,0,0-2,.52,4.68,4.68,0,0,0-1.28,1.34l-1.71-1.55a5.38,5.38,0,0,1,1.92-1.9,6.11,6.11,0,0,1,3.22-.75,6,6,0,0,1,4.07,1.24,4.42,4.42,0,0,1,1.42,3.54v6.85H583v2.34Zm-5.77-1.87a3.76,3.76,0,0,0,2.2-.59,1.82,1.82,0,0,0,.87-1.58v-2h-2.42c-2,0-3,.61-3,1.83v.48a1.62,1.62,0,0,0,.61,1.38A2.86,2.86,0,0,0,575.63,160.37Z" fill="#eef2f0"/><path d="M588.44,162.24V148.59h2.86v2.26h.13a4.53,4.53,0,0,1,1.35-1.84,3.84,3.84,0,0,1,2.48-.74,4.05,4.05,0,0,1,3.27,1.38,5.91,5.91,0,0,1,1.17,3.93v8.66h-2.86v-8.3c0-2.13-.86-3.2-2.57-3.2a4,4,0,0,0-1.09.15,3,3,0,0,0-1,.43,2.13,2.13,0,0,0-.67.73,2.09,2.09,0,0,0-.25,1v9.14Z" fill="#eef2f0"/><path d="M620.8,162.55a8.41,8.41,0,0,1-3.92-.84,8.75,8.75,0,0,1-2.77-2.25l2-1.92a6.8,6.8,0,0,0,2.14,1.78,5.61,5.61,0,0,0,2.66.61,3.87,3.87,0,0,0,2.65-.79,2.67,2.67,0,0,0,.9-2.13,2.3,2.3,0,0,0-.63-1.7,4.39,4.39,0,0,0-2.24-.95l-1.62-.29a7.82,7.82,0,0,1-4-1.75,4.55,4.55,0,0,1-1.34-3.47,5.08,5.08,0,0,1,.46-2.19,4.57,4.57,0,0,1,1.29-1.65,5.8,5.8,0,0,1,2-1,8.7,8.7,0,0,1,2.65-.37,8.3,8.3,0,0,1,3.59.72,7.19,7.19,0,0,1,2.6,2.09l-2.07,1.84a5.2,5.2,0,0,0-1.73-1.47,5.34,5.34,0,0,0-2.55-.55,4.1,4.1,0,0,0-2.44.63,2.12,2.12,0,0,0-.87,1.83,2.07,2.07,0,0,0,.71,1.72,5.18,5.18,0,0,0,2.21.86l1.62.34a7.68,7.68,0,0,1,4,1.78,4.67,4.67,0,0,1,1.28,3.47,5.87,5.87,0,0,1-.45,2.33,5,5,0,0,1-1.3,1.8,5.87,5.87,0,0,1-2.09,1.16A9,9,0,0,1,620.8,162.55Z" fill="#eef2f0"/><path d="M637.16,162.24a3,3,0,0,1-2.26-.78,3,3,0,0,1-.76-2.19v-8.35H632v-2.33h1.16a1.25,1.25,0,0,0,1-.32,1.5,1.5,0,0,0,.28-1v-2.39H637v3.73h2.86v2.33H637v9h2.65v2.34Z" fill="#eef2f0"/><path d="M653.85,160h-.1a4.91,4.91,0,0,1-.49,1,3.15,3.15,0,0,1-.76.83,3.56,3.56,0,0,1-1.1.56,4.76,4.76,0,0,1-1.48.21,4.11,4.11,0,0,1-3.3-1.36,5.85,5.85,0,0,1-1.17-3.91v-8.69h2.86v8.32c0,2.12.88,3.18,2.63,3.18a3.91,3.91,0,0,0,1.08-.15,2.84,2.84,0,0,0,.93-.43,2.11,2.11,0,0,0,.65-.74,2,2,0,0,0,.25-1.05v-9.13h2.86v13.65h-2.86Z" fill="#eef2f0"/><path d="M672,160h-.13a3.8,3.8,0,0,1-1.46,1.89,4.11,4.11,0,0,1-2.38.68,4.72,4.72,0,0,1-4-1.87,10.47,10.47,0,0,1,0-10.53,4.73,4.73,0,0,1,4-1.88,4.26,4.26,0,0,1,2.38.67,3.77,3.77,0,0,1,1.46,1.91H672v-8h2.86v19.43H672Zm-3.1.11a3.68,3.68,0,0,0,2.21-.65,2,2,0,0,0,.89-1.69v-4.67a2,2,0,0,0-.89-1.7,3.75,3.75,0,0,0-2.21-.64,3.11,3.11,0,0,0-2.39,1,3.58,3.58,0,0,0-.89,2.53v2.36a3.61,3.61,0,0,0,.89,2.54A3.11,3.11,0,0,0,668.92,160.09Z" fill="#eef2f0"/><path d="M687,162.55a6.41,6.41,0,0,1-2.62-.5,5.3,5.3,0,0,1-2-1.43,6.46,6.46,0,0,1-1.25-2.25,10.37,10.37,0,0,1,0-5.91,6.51,6.51,0,0,1,1.25-2.26,5.41,5.41,0,0,1,2-1.43,6.58,6.58,0,0,1,2.62-.5,6.25,6.25,0,0,1,2.64.53,5.22,5.22,0,0,1,1.91,1.46,6.56,6.56,0,0,1,1.14,2.16,9.08,9.08,0,0,1,.38,2.65v1.08h-9.37v.44a3.62,3.62,0,0,0,.93,2.57,3.45,3.45,0,0,0,2.66,1,4,4,0,0,0,2.13-.54,4.76,4.76,0,0,0,1.47-1.49l1.68,1.66a5.4,5.4,0,0,1-2.21,2A7.17,7.17,0,0,1,687,162.55Zm0-12.05a3.32,3.32,0,0,0-1.35.27,3,3,0,0,0-1.05.73,3.36,3.36,0,0,0-.67,1.13,4.44,4.44,0,0,0-.23,1.44v.19H690V154a3.81,3.81,0,0,0-.81-2.54A2.79,2.79,0,0,0,687,150.5Z" fill="#eef2f0"/><path d="M698.82,162.24V148.59h2.86v2.26h.13a4.53,4.53,0,0,1,1.35-1.84,3.87,3.87,0,0,1,2.49-.74,4,4,0,0,1,3.26,1.38,5.91,5.91,0,0,1,1.17,3.93v8.66h-2.86v-8.3c0-2.13-.86-3.2-2.57-3.2a4,4,0,0,0-1.09.15,3,3,0,0,0-1,.43,2.23,2.23,0,0,0-.67.73,2.09,2.09,0,0,0-.25,1v9.14Z" fill="#eef2f0"/><path d="M720.45,162.24a3,3,0,0,1-2.26-.78,3,3,0,0,1-.76-2.19v-8.35H715.3v-2.33h1.16a1.25,1.25,0,0,0,1-.32,1.5,1.5,0,0,0,.28-1v-2.39h2.57v3.73h2.86v2.33h-2.86v9h2.65v2.34Z" fill="#eef2f0"/><path d="M749.35,162.24l-1.65-5h-6.85l-1.61,5h-3l6.24-18.32h3.73l6.25,18.32Zm-5-15.59h-.13l-2.66,8.08H747Z" fill="#eef2f0"/><path d="M762,162.55a7,7,0,0,1-3.26-.68,7.08,7.08,0,0,1-2.28-1.89l1.84-1.68a5.94,5.94,0,0,0,1.69,1.43,4.43,4.43,0,0,0,2.17.51,3,3,0,0,0,1.87-.48,1.62,1.62,0,0,0,.62-1.35,1.57,1.57,0,0,0-.43-1.12,2.44,2.44,0,0,0-1.51-.59l-1.26-.16a6.44,6.44,0,0,1-3.3-1.22,3.45,3.45,0,0,1-1.19-2.85,4,4,0,0,1,.37-1.77,3.75,3.75,0,0,1,1-1.31,4.72,4.72,0,0,1,1.61-.83,7,7,0,0,1,2.06-.29,6.85,6.85,0,0,1,3,.58,7,7,0,0,1,2.09,1.6l-1.76,1.68A4.66,4.66,0,0,0,764,151a4.13,4.13,0,0,0-2-.46,2.67,2.67,0,0,0-1.75.48,1.5,1.5,0,0,0-.56,1.23,1.42,1.42,0,0,0,.49,1.18,3.63,3.63,0,0,0,1.61.58l1.26.16a6,6,0,0,1,3.29,1.32,3.49,3.49,0,0,1,1,2.64,4.2,4.2,0,0,1-.38,1.8,4.14,4.14,0,0,1-1.09,1.38,5.23,5.23,0,0,1-1.71.89A7.38,7.38,0,0,1,762,162.55Z" fill="#eef2f0"/><path d="M777.46,162.55a6.53,6.53,0,0,1-5.53-2.57l1.83-1.68a6,6,0,0,0,1.7,1.43,4.42,4.42,0,0,0,2.16.51,3,3,0,0,0,1.88-.48,1.64,1.64,0,0,0,.62-1.35,1.58,1.58,0,0,0-.44-1.12,2.44,2.44,0,0,0-1.51-.59l-1.26-.16a6.4,6.4,0,0,1-3.29-1.22,3.43,3.43,0,0,1-1.2-2.85,4.18,4.18,0,0,1,.37-1.77,3.78,3.78,0,0,1,1-1.31,4.76,4.76,0,0,1,1.6-.83,7,7,0,0,1,2.06-.29,6.87,6.87,0,0,1,3,.58,6.94,6.94,0,0,1,2.08,1.6l-1.76,1.68a4.61,4.61,0,0,0-1.37-1.09,4.14,4.14,0,0,0-2-.46,2.62,2.62,0,0,0-1.74.48,1.51,1.51,0,0,0-.57,1.23,1.42,1.42,0,0,0,.5,1.18,3.58,3.58,0,0,0,1.6.58l1.26.16a6.06,6.06,0,0,1,3.3,1.32,3.48,3.48,0,0,1,1,2.64,4.06,4.06,0,0,1-.38,1.8,3.91,3.91,0,0,1-1.09,1.38,5.18,5.18,0,0,1-1.7.89A7.44,7.44,0,0,1,777.46,162.55Z" fill="#eef2f0"/><path d="M794.08,162.55a6.35,6.35,0,0,1-2.58-.5,5.37,5.37,0,0,1-2-1.43,6.65,6.65,0,0,1-1.26-2.25,10.14,10.14,0,0,1,0-5.91,6.69,6.69,0,0,1,1.26-2.26,5.48,5.48,0,0,1,2-1.43,6.93,6.93,0,0,1,5.17,0,5.45,5.45,0,0,1,2,1.43,6.69,6.69,0,0,1,1.26,2.26,10.14,10.14,0,0,1,0,5.91,6.65,6.65,0,0,1-1.26,2.25,5.33,5.33,0,0,1-2,1.43A6.4,6.4,0,0,1,794.08,162.55Zm0-2.39a3.17,3.17,0,0,0,2.36-.9,3.67,3.67,0,0,0,.9-2.7v-2.3a3.67,3.67,0,0,0-.9-2.7,3.54,3.54,0,0,0-4.72,0,3.66,3.66,0,0,0-.89,2.7v2.3a3.66,3.66,0,0,0,.89,2.7A3.17,3.17,0,0,0,794.08,160.16Z" fill="#eef2f0"/><path d="M811.43,162.55a6.41,6.41,0,0,1-2.62-.5,5,5,0,0,1-1.94-1.43,6.39,6.39,0,0,1-1.21-2.25,10.61,10.61,0,0,1,0-5.91,6.44,6.44,0,0,1,1.21-2.26,5.14,5.14,0,0,1,1.94-1.43,6.58,6.58,0,0,1,2.62-.5,5.72,5.72,0,0,1,3.36.92,5.26,5.26,0,0,1,1.92,2.44l-2.36,1.11a3,3,0,0,0-1-1.51,3,3,0,0,0-1.91-.57,2.88,2.88,0,0,0-2.37,1,3.9,3.9,0,0,0-.8,2.56v2.43a3.86,3.86,0,0,0,.8,2.55,2.85,2.85,0,0,0,2.37,1,3.07,3.07,0,0,0,2-.61,4.34,4.34,0,0,0,1.2-1.64l2.17,1.15a5.38,5.38,0,0,1-2,2.59A5.93,5.93,0,0,1,811.43,162.55Z" fill="#eef2f0"/><path d="M823.61,146.15a1.75,1.75,0,0,1-1.3-.42,1.49,1.49,0,0,1-.4-1.08v-.45a1.48,1.48,0,0,1,.4-1.07,1.75,1.75,0,0,1,1.3-.42,1.7,1.7,0,0,1,1.29.42,1.52,1.52,0,0,1,.39,1.07v.45a1.52,1.52,0,0,1-.39,1.08A1.7,1.7,0,0,1,823.61,146.15Zm-1.44,2.44H825v13.65h-2.86Z" fill="#eef2f0"/><path d="M841.75,162.24a2.29,2.29,0,0,1-1.73-.64,2.93,2.93,0,0,1-.74-1.65h-.13a3.36,3.36,0,0,1-1.44,2,4.78,4.78,0,0,1-2.55.65,4.53,4.53,0,0,1-3.27-1.1,3.92,3.92,0,0,1-1.14-3,3.5,3.5,0,0,1,1.49-3.07,7.62,7.62,0,0,1,4.34-1h2.47v-1.16a2.65,2.65,0,0,0-.68-1.94,2.94,2.94,0,0,0-2.13-.68,3.4,3.4,0,0,0-2,.52,4.71,4.71,0,0,0-1.29,1.34l-1.7-1.55a5.43,5.43,0,0,1,1.91-1.9,6.18,6.18,0,0,1,3.23-.75,6,6,0,0,1,4.07,1.24,4.42,4.42,0,0,1,1.42,3.54v6.85h1.44v2.34ZM836,160.37a3.78,3.78,0,0,0,2.2-.59,1.82,1.82,0,0,0,.87-1.58v-2h-2.42c-2,0-3,.61-3,1.83v.48a1.62,1.62,0,0,0,.61,1.38A2.84,2.84,0,0,0,836,160.37Z" fill="#eef2f0"/><path d="M852.49,162.24a3,3,0,0,1-2.26-.78,3,3,0,0,1-.76-2.19v-8.35h-2.13v-2.33h1.16a1.25,1.25,0,0,0,1-.32,1.5,1.5,0,0,0,.28-1v-2.39h2.57v3.73h2.86v2.33h-2.86v9H855v2.34Z" fill="#eef2f0"/><path d="M862.36,146.15a1.74,1.74,0,0,1-1.3-.42,1.49,1.49,0,0,1-.41-1.08v-.45a1.49,1.49,0,0,1,.41-1.07,1.74,1.74,0,0,1,1.3-.42,1.68,1.68,0,0,1,1.28.42,1.48,1.48,0,0,1,.4,1.07v.45a1.49,1.49,0,0,1-.4,1.08A1.68,1.68,0,0,1,862.36,146.15Zm-1.45,2.44h2.87v13.65h-2.87Z" fill="#eef2f0"/><path d="M875.85,162.55a6.35,6.35,0,0,1-2.58-.5,5.37,5.37,0,0,1-2-1.43,6.65,6.65,0,0,1-1.26-2.25,10.14,10.14,0,0,1,0-5.91,6.69,6.69,0,0,1,1.26-2.26,5.48,5.48,0,0,1,2-1.43,6.93,6.93,0,0,1,5.17,0,5.45,5.45,0,0,1,2,1.43,6.69,6.69,0,0,1,1.26,2.26,10.14,10.14,0,0,1,0,5.91,6.65,6.65,0,0,1-1.26,2.25,5.33,5.33,0,0,1-2,1.43A6.4,6.4,0,0,1,875.85,162.55Zm0-2.39a3.17,3.17,0,0,0,2.36-.9,3.67,3.67,0,0,0,.9-2.7v-2.3a3.67,3.67,0,0,0-.9-2.7,3.54,3.54,0,0,0-4.72,0,3.66,3.66,0,0,0-.89,2.7v2.3a3.66,3.66,0,0,0,.89,2.7A3.17,3.17,0,0,0,875.85,160.16Z" fill="#eef2f0"/><path d="M887.93,162.24V148.59h2.86v2.26h.13a4.53,4.53,0,0,1,1.35-1.84,3.82,3.82,0,0,1,2.48-.74,4.05,4.05,0,0,1,3.27,1.38,5.91,5.91,0,0,1,1.17,3.93v8.66h-2.86v-8.3c0-2.13-.86-3.2-2.58-3.2a4.09,4.09,0,0,0-1.09.15,3,3,0,0,0-.95.43,2.13,2.13,0,0,0-.67.73,2.09,2.09,0,0,0-.25,1v9.14Z" fill="#eef2f0"/></svg>
