<?xml version="1.0" encoding="iso-8859-1"?>
<!-- Generator: Adobe Illustrator 20.0.0, SVG Export Plug-In . SVG Version: 6.00 Build 0)  -->
<svg version="1.1" id="&#x5716;&#x5C64;_1" xmlns="http://www.w3.org/2000/svg" xmlns:xlink="http://www.w3.org/1999/xlink" x="0px"
	 y="0px" viewBox="0 0 270.538 70" style="enable-background:new 0 0 270.538 70;" xml:space="preserve">
<g>
	<path style="fill:#7F7F80;" d="M11.969,64.102c-0.33,0-0.615-0.121-0.856-0.361c-0.24-0.241-0.36-0.525-0.36-0.855V49.613
		c0-0.275,0.096-0.508,0.289-0.7c0.193-0.193,0.427-0.29,0.701-0.29c0.275,0,0.508,0.097,0.7,0.29
		c0.193,0.192,0.289,0.426,0.289,0.7v12.674c0,0.098,0.049,0.145,0.146,0.145h5.772c0.232,0,0.426,0.085,0.586,0.249
		c0.158,0.165,0.236,0.361,0.236,0.586c0,0.227-0.078,0.424-0.236,0.588c-0.159,0.165-0.354,0.248-0.586,0.248H11.969z"/>
	<path style="fill:#7F7F80;" d="M26.473,64.369c-1.567,0-2.872-0.537-3.916-1.619c-1.045-1.077-1.566-2.537-1.566-4.379
		c0-0.892,0.145-1.723,0.434-2.494c0.288-0.768,0.673-1.407,1.153-1.916c0.482-0.508,1.034-0.903,1.658-1.185
		c0.628-0.282,1.27-0.423,1.928-0.423c1.429,0,2.542,0.468,3.34,1.402c0.809,0.976,1.216,2.266,1.216,3.874
		c0,0.331-0.124,0.611-0.37,0.846c-0.262,0.233-0.572,0.351-0.928,0.351h-6.348c-0.112,0-0.158,0.047-0.145,0.144
		c0.083,1.182,0.468,2.121,1.153,2.823c0.689,0.7,1.567,1.052,2.639,1.052c0.796,0,1.546-0.186,2.247-0.558
		c0.165-0.082,0.343-0.098,0.536-0.05c0.192,0.05,0.337,0.155,0.433,0.32c0.096,0.177,0.119,0.368,0.071,0.566
		c-0.048,0.2-0.161,0.347-0.34,0.443C28.651,64.102,27.587,64.369,26.473,64.369 M22.908,57.343c0,0.068,0.048,0.103,0.144,0.103
		h5.834c0.094,0,0.143-0.049,0.143-0.145c-0.014-1.098-0.271-1.943-0.773-2.535c-0.502-0.589-1.192-0.885-2.071-0.885
		c-0.811,0-1.525,0.308-2.144,0.927C23.286,55.549,22.908,56.395,22.908,57.343"/>
	<path style="fill:#7F7F80;" d="M36.484,64.369c-0.99,0-1.798-0.289-2.422-0.866c-0.626-0.577-0.938-1.365-0.938-2.369
		c0-1.224,0.549-2.171,1.648-2.845c1.1-0.673,2.852-1.149,5.257-1.422c0.096-0.014,0.144-0.076,0.144-0.186
		c-0.041-1.827-0.823-2.742-2.349-2.742c-0.894,0-1.827,0.276-2.803,0.824c-0.178,0.109-0.368,0.141-0.566,0.093
		c-0.201-0.049-0.356-0.162-0.464-0.34c-0.098-0.193-0.122-0.392-0.073-0.598c0.047-0.207,0.167-0.365,0.36-0.473
		c1.332-0.729,2.617-1.094,3.854-1.094c1.347,0,2.346,0.416,2.999,1.247c0.652,0.831,0.98,1.981,0.98,3.451v6.266
		c0,0.22-0.08,0.406-0.239,0.558c-0.158,0.151-0.347,0.226-0.567,0.226c-0.219,0-0.414-0.074-0.586-0.226
		c-0.172-0.152-0.272-0.337-0.298-0.558l-0.062-0.556c0-0.028-0.01-0.041-0.031-0.041c-0.021,0-0.045,0.007-0.072,0.021
		C38.936,63.828,37.678,64.369,36.484,64.369 M37.039,62.845c0.523,0,1.017-0.117,1.484-0.351c0.467-0.234,0.983-0.591,1.546-1.071
		c0.07-0.07,0.103-0.158,0.103-0.269v-2.886c0-0.095-0.034-0.142-0.103-0.142h-0.041c-1.814,0.233-3.102,0.58-3.865,1.039
		c-0.763,0.461-1.143,1.07-1.143,1.825c0,0.631,0.182,1.099,0.546,1.402C35.931,62.694,36.422,62.845,37.039,62.845"/>
	<path style="fill:#7F7F80;" d="M50.013,64.369c-1.456,0-2.61-0.525-3.463-1.576c-0.852-1.051-1.278-2.523-1.278-4.422
		c0-1.785,0.488-3.235,1.464-4.348c0.976-1.113,2.143-1.671,3.503-1.671c0.604,0,1.144,0.1,1.618,0.3
		c0.473,0.201,0.971,0.511,1.494,0.938c0.028,0.027,0.052,0.036,0.073,0.018c0.021-0.012,0.031-0.032,0.031-0.06l-0.104-1.834
		v-3.463c0-0.26,0.096-0.484,0.289-0.67c0.193-0.185,0.419-0.279,0.68-0.279c0.262,0,0.488,0.093,0.68,0.279
		c0.191,0.185,0.287,0.409,0.287,0.67v15.066c0,0.22-0.079,0.406-0.236,0.558c-0.158,0.151-0.34,0.226-0.545,0.226
		c-0.235,0-0.434-0.07-0.599-0.216c-0.165-0.145-0.262-0.334-0.288-0.567l-0.083-0.556c0-0.014-0.006-0.02-0.02-0.02
		c-0.014,0-0.029,0.005-0.042,0.02C52.363,63.834,51.208,64.369,50.013,64.369 M50.426,62.763c0.974,0,1.916-0.488,2.822-1.464
		c0.07-0.067,0.103-0.158,0.103-0.267v-5.71c0-0.096-0.034-0.178-0.103-0.247c-0.865-0.744-1.758-1.113-2.679-1.113
		c-0.933,0-1.717,0.412-2.349,1.237c-0.632,0.823-0.948,1.873-0.948,3.151c0,1.403,0.273,2.487,0.823,3.256
		C48.646,62.376,49.422,62.763,50.426,62.763"/>
	<path style="fill:#7F7F80;" d="M63.781,64.369c-1.567,0-2.871-0.537-3.915-1.619c-1.045-1.077-1.566-2.537-1.566-4.379
		c0-0.892,0.144-1.723,0.433-2.494c0.289-0.768,0.673-1.407,1.152-1.916c0.481-0.508,1.035-0.903,1.66-1.185
		c0.627-0.282,1.268-0.423,1.928-0.423c1.429,0,2.541,0.468,3.338,1.402c0.812,0.976,1.216,2.266,1.216,3.874
		c0,0.331-0.123,0.611-0.371,0.846c-0.261,0.233-0.569,0.351-0.927,0.351H60.38c-0.11,0-0.158,0.047-0.144,0.144
		c0.082,1.182,0.467,2.121,1.153,2.823c0.687,0.7,1.566,1.052,2.638,1.052c0.797,0,1.547-0.186,2.248-0.558
		c0.163-0.082,0.344-0.098,0.535-0.05c0.193,0.05,0.337,0.155,0.434,0.32c0.096,0.177,0.119,0.368,0.071,0.566
		c-0.047,0.2-0.161,0.347-0.34,0.443C65.958,64.102,64.892,64.369,63.781,64.369 M60.215,57.343c0,0.068,0.048,0.103,0.144,0.103
		h5.834c0.096,0,0.144-0.049,0.144-0.145c-0.015-1.098-0.273-1.943-0.774-2.535c-0.501-0.589-1.192-0.885-2.072-0.885
		c-0.811,0-1.524,0.308-2.144,0.927C60.593,55.549,60.215,56.395,60.215,57.343"/>
	<path style="fill:#7F7F80;" d="M72.759,63.824c-0.185,0.187-0.409,0.279-0.669,0.279c-0.262,0-0.489-0.092-0.682-0.279
		c-0.193-0.185-0.289-0.416-0.289-0.692v-9.704c0-0.22,0.08-0.407,0.238-0.56c0.158-0.15,0.347-0.227,0.566-0.227
		c0.22,0,0.412,0.076,0.577,0.227c0.165,0.152,0.254,0.34,0.268,0.56l0.103,1.276c0,0.015,0.01,0.02,0.031,0.02
		c0.021,0,0.037-0.005,0.053-0.02c0.412-0.741,0.895-1.319,1.452-1.73c0.556-0.414,1.15-0.619,1.782-0.619h0.393
		c0.246,0.028,0.432,0.152,0.556,0.372c0.081,0.151,0.123,0.308,0.123,0.473c0,0.083-0.007,0.164-0.021,0.249
		c-0.054,0.217-0.178,0.383-0.37,0.493c-0.178,0.11-0.37,0.164-0.578,0.164h-0.081h-0.269c-0.523,0-1.037,0.201-1.546,0.599
		c-0.508,0.399-0.941,1.031-1.299,1.896c-0.039,0.083-0.06,0.179-0.06,0.288v6.245C73.037,63.408,72.944,63.639,72.759,63.824"/>
	<path style="fill:#7F7F80;" d="M83.094,64.369c-1.277,0-2.493-0.37-3.648-1.112c-0.194-0.11-0.302-0.276-0.329-0.494v-0.125
		c0-0.178,0.054-0.337,0.165-0.473c0.124-0.178,0.295-0.282,0.515-0.309c0.22-0.027,0.419,0.021,0.598,0.144
		c0.878,0.591,1.799,0.886,2.761,0.886c0.729,0,1.286-0.169,1.671-0.504c0.384-0.338,0.576-0.767,0.576-1.289
		c0-0.235-0.055-0.446-0.164-0.641c-0.11-0.191-0.233-0.357-0.371-0.493c-0.136-0.137-0.344-0.279-0.618-0.423
		c-0.275-0.142-0.502-0.254-0.68-0.329c-0.178-0.076-0.44-0.175-0.784-0.299c-0.385-0.136-0.712-0.264-0.979-0.381
		c-0.267-0.116-0.569-0.276-0.906-0.474c-0.337-0.2-0.606-0.406-0.804-0.619c-0.2-0.211-0.37-0.481-0.516-0.803
		c-0.145-0.323-0.216-0.67-0.216-1.043c0-0.933,0.357-1.707,1.071-2.316c0.715-0.613,1.677-0.919,2.887-0.919
		c1.002,0,1.98,0.282,2.926,0.845c0.178,0.111,0.285,0.272,0.32,0.486c0.033,0.213-0.018,0.401-0.155,0.566
		c-0.124,0.179-0.291,0.286-0.504,0.319c-0.214,0.035-0.409-0.003-0.588-0.113c-0.66-0.398-1.326-0.598-1.999-0.598
		c-0.687,0-1.207,0.158-1.557,0.475c-0.35,0.316-0.526,0.706-0.526,1.174c0,0.207,0.046,0.396,0.135,0.567
		c0.09,0.171,0.192,0.311,0.309,0.423c0.118,0.109,0.295,0.225,0.535,0.35c0.24,0.124,0.445,0.22,0.609,0.288
		c0.164,0.069,0.405,0.165,0.722,0.289c0.095,0.028,0.165,0.048,0.207,0.063c0.343,0.136,0.59,0.236,0.742,0.298
		c0.15,0.063,0.377,0.161,0.68,0.298c0.302,0.136,0.529,0.261,0.681,0.37c0.15,0.111,0.332,0.257,0.546,0.444
		c0.214,0.186,0.371,0.37,0.474,0.556c0.103,0.186,0.192,0.409,0.268,0.668c0.076,0.263,0.113,0.545,0.113,0.846
		c0,0.977-0.371,1.787-1.113,2.432C85.402,64.048,84.385,64.369,83.094,64.369"/>
	<path style="fill:#7F7F80;" d="M99.432,49.922c-0.255,0.233-0.571,0.35-0.95,0.35c-0.377,0-0.693-0.116-0.947-0.35
		c-0.255-0.233-0.383-0.529-0.383-0.888c0-0.383,0.125-0.69,0.372-0.916c0.248-0.226,0.566-0.34,0.957-0.34s0.712,0.115,0.96,0.34
		c0.247,0.227,0.371,0.533,0.371,0.916C99.813,49.393,99.686,49.688,99.432,49.922 M99.143,63.824
		c-0.186,0.187-0.409,0.279-0.67,0.279c-0.262,0-0.489-0.092-0.682-0.279c-0.193-0.185-0.287-0.416-0.287-0.692v-9.523
		c0-0.273,0.094-0.502,0.287-0.689c0.193-0.184,0.42-0.279,0.682-0.279c0.26,0,0.484,0.095,0.67,0.279
		c0.184,0.187,0.278,0.415,0.278,0.689v9.523C99.421,63.408,99.328,63.639,99.143,63.824"/>
	<path style="fill:#7F7F80;" d="M104.934,63.824c-0.185,0.187-0.408,0.279-0.668,0.279c-0.263,0-0.489-0.092-0.681-0.279
		c-0.194-0.185-0.29-0.416-0.29-0.692v-9.704c0-0.22,0.079-0.407,0.239-0.56c0.158-0.15,0.347-0.227,0.567-0.227
		c0.219,0,0.411,0.076,0.576,0.227c0.165,0.152,0.261,0.34,0.289,0.56l0.081,0.823c0,0.027,0.011,0.04,0.031,0.04
		c0.021,0,0.039-0.005,0.053-0.02c0.631-0.618,1.25-1.093,1.855-1.423c0.604-0.329,1.264-0.494,1.979-0.494
		c2.335,0,3.503,1.497,3.503,4.494v6.284c0,0.276-0.096,0.507-0.288,0.692c-0.193,0.187-0.42,0.279-0.681,0.279
		c-0.261,0-0.487-0.092-0.68-0.279c-0.192-0.185-0.288-0.416-0.288-0.692v-6.037c0-1.073-0.173-1.848-0.515-2.33
		c-0.343-0.48-0.893-0.721-1.65-0.721c-0.549,0-1.043,0.126-1.482,0.383c-0.44,0.253-0.956,0.668-1.547,1.247
		c-0.083,0.081-0.124,0.171-0.124,0.266v7.193C105.213,63.408,105.12,63.639,104.934,63.824"/>
	<path style="fill:#7F7F80;" d="M124.074,63.813c-0.192,0.193-0.426,0.288-0.699,0.288c-0.276,0-0.51-0.096-0.7-0.288
		c-0.194-0.193-0.29-0.426-0.29-0.7V49.839c0-0.329,0.119-0.615,0.361-0.854c0.24-0.242,0.524-0.363,0.856-0.363h6.903
		c0.22,0,0.413,0.082,0.578,0.249c0.165,0.163,0.246,0.359,0.246,0.587c0,0.227-0.081,0.419-0.246,0.577
		c-0.165,0.158-0.359,0.237-0.578,0.237h-5.997c-0.096,0-0.143,0.054-0.143,0.164v4.926c0,0.096,0.047,0.145,0.143,0.145h4.926
		c0.234,0,0.429,0.081,0.588,0.247c0.158,0.165,0.237,0.361,0.237,0.588c0,0.227-0.078,0.42-0.237,0.578
		c-0.158,0.16-0.354,0.237-0.588,0.237h-4.926c-0.096,0-0.143,0.057-0.143,0.165v5.792
		C124.364,63.388,124.269,63.621,124.074,63.813"/>
	<path style="fill:#7F7F80;" d="M137.234,64.369c-2.321,0-3.483-1.489-3.483-4.471v-6.289c0-0.273,0.093-0.502,0.279-0.689
		c0.185-0.184,0.412-0.279,0.68-0.279c0.269,0,0.496,0.094,0.68,0.279c0.186,0.187,0.279,0.415,0.279,0.689v6.061
		c0,1.072,0.168,1.845,0.504,2.319c0.338,0.474,0.889,0.711,1.661,0.711c0.563,0,1.071-0.136,1.524-0.413
		c0.454-0.274,0.941-0.74,1.464-1.4c0.068-0.083,0.102-0.171,0.102-0.269v-7.009c0-0.273,0.093-0.502,0.279-0.689
		c0.186-0.184,0.412-0.279,0.681-0.279c0.268,0,0.494,0.094,0.68,0.279c0.185,0.187,0.278,0.415,0.278,0.689V63.3
		c0,0.218-0.076,0.407-0.227,0.565c-0.151,0.158-0.344,0.237-0.578,0.237c-0.22,0-0.413-0.074-0.576-0.227
		c-0.165-0.151-0.261-0.344-0.288-0.576l-0.064-0.971c-0.013-0.012-0.031-0.021-0.05-0.021c-0.021,0-0.038,0.009-0.051,0.021
		c-0.578,0.674-1.165,1.182-1.762,1.525C138.645,64.198,137.976,64.369,137.234,64.369"/>
	<path style="fill:#7F7F80;" d="M150.711,64.369c-1.167,0-2.003-0.33-2.503-0.988c-0.502-0.66-0.752-1.601-0.752-2.824v-6.203
		c0-0.096-0.055-0.145-0.165-0.145h-0.826c-0.205,0-0.377-0.073-0.515-0.217c-0.138-0.145-0.205-0.32-0.205-0.526
		c0-0.193,0.067-0.364,0.205-0.515c0.138-0.151,0.31-0.233,0.515-0.248l0.908-0.062c0.109,0,0.165-0.055,0.165-0.165l0.165-2.245
		c0.014-0.221,0.102-0.41,0.268-0.566c0.165-0.159,0.364-0.239,0.599-0.239c0.219,0,0.409,0.08,0.565,0.239
		c0.158,0.156,0.238,0.345,0.238,0.566v2.245c0,0.11,0.047,0.165,0.144,0.165h2.164c0.22,0,0.404,0.077,0.556,0.227
		c0.151,0.152,0.227,0.338,0.227,0.56c0,0.218-0.076,0.402-0.227,0.554c-0.152,0.152-0.337,0.227-0.556,0.227h-2.164
		c-0.096,0-0.144,0.048-0.144,0.145v6.245c0,0.74,0.134,1.297,0.4,1.668c0.269,0.371,0.726,0.556,1.371,0.556
		c0.165,0,0.365-0.026,0.599-0.08c0.191-0.043,0.377-0.018,0.556,0.071c0.179,0.089,0.289,0.231,0.331,0.422
		c0.028,0.07,0.042,0.138,0.042,0.206c0,0.125-0.035,0.249-0.103,0.373c-0.096,0.179-0.248,0.295-0.455,0.35
		C151.577,64.301,151.11,64.369,150.711,64.369"/>
	<path style="fill:#7F7F80;" d="M158.931,64.369c-2.323,0-3.484-1.489-3.484-4.471v-6.289c0-0.273,0.093-0.502,0.279-0.689
		c0.184-0.184,0.412-0.279,0.679-0.279c0.269,0,0.496,0.094,0.68,0.279c0.185,0.187,0.279,0.415,0.279,0.689v6.061
		c0,1.072,0.168,1.845,0.504,2.319c0.338,0.474,0.889,0.711,1.661,0.711c0.563,0,1.072-0.136,1.525-0.413
		c0.454-0.274,0.943-0.74,1.465-1.4c0.067-0.083,0.101-0.171,0.101-0.269v-7.009c0-0.273,0.093-0.502,0.279-0.689
		c0.185-0.184,0.412-0.279,0.681-0.279c0.267,0,0.494,0.094,0.679,0.279c0.186,0.187,0.279,0.415,0.279,0.689V63.3
		c0,0.218-0.076,0.407-0.227,0.565c-0.151,0.158-0.344,0.237-0.576,0.237c-0.22,0-0.413-0.074-0.577-0.227
		c-0.166-0.151-0.262-0.344-0.289-0.576l-0.063-0.971c-0.012-0.012-0.031-0.021-0.051-0.021s-0.037,0.009-0.051,0.021
		c-0.578,0.674-1.165,1.182-1.762,1.525C160.342,64.198,159.672,64.369,158.931,64.369"/>
	<path style="fill:#7F7F80;" d="M170.029,63.824c-0.184,0.187-0.408,0.279-0.67,0.279c-0.261,0-0.488-0.092-0.68-0.279
		c-0.193-0.185-0.289-0.416-0.289-0.692v-9.704c0-0.22,0.078-0.407,0.238-0.56c0.156-0.15,0.346-0.227,0.566-0.227
		c0.22,0,0.411,0.076,0.576,0.227c0.165,0.152,0.255,0.34,0.269,0.56l0.102,1.276c0,0.015,0.011,0.02,0.032,0.02
		c0.021,0,0.037-0.005,0.052-0.02c0.412-0.741,0.896-1.319,1.452-1.73c0.556-0.414,1.151-0.619,1.782-0.619h0.393
		c0.246,0.028,0.432,0.152,0.557,0.372c0.082,0.151,0.122,0.308,0.122,0.473c0,0.083-0.007,0.164-0.02,0.249
		c-0.054,0.217-0.18,0.383-0.373,0.493c-0.177,0.11-0.37,0.164-0.576,0.164h-0.082h-0.269c-0.522,0-1.037,0.201-1.545,0.599
		c-0.508,0.399-0.941,1.031-1.299,1.896c-0.04,0.083-0.062,0.179-0.062,0.288v6.245C170.307,63.408,170.214,63.639,170.029,63.824"
		/>
	<path style="fill:#7F7F80;" d="M181.395,64.369c-1.567,0-2.873-0.537-3.917-1.619c-1.044-1.077-1.567-2.537-1.567-4.379
		c0-0.892,0.145-1.723,0.434-2.494c0.289-0.768,0.673-1.407,1.153-1.916c0.482-0.508,1.035-0.903,1.66-1.185
		c0.626-0.282,1.268-0.423,1.928-0.423c1.428,0,2.54,0.468,3.337,1.402c0.81,0.976,1.218,2.266,1.218,3.874
		c0,0.331-0.125,0.611-0.372,0.846c-0.261,0.233-0.569,0.351-0.928,0.351h-6.349c-0.109,0-0.158,0.047-0.144,0.144
		c0.083,1.182,0.468,2.121,1.155,2.823c0.687,0.7,1.567,1.052,2.638,1.052c0.797,0,1.546-0.186,2.247-0.558
		c0.165-0.082,0.343-0.098,0.535-0.05c0.193,0.05,0.338,0.155,0.435,0.32c0.096,0.177,0.12,0.368,0.07,0.566
		c-0.047,0.2-0.161,0.347-0.339,0.443C183.573,64.102,182.507,64.369,181.395,64.369 M177.831,57.343
		c0,0.068,0.047,0.103,0.143,0.103h5.832c0.096,0,0.145-0.049,0.145-0.145c-0.015-1.098-0.273-1.943-0.775-2.535
		c-0.501-0.589-1.192-0.885-2.072-0.885c-0.81,0-1.525,0.308-2.143,0.927C178.207,55.549,177.831,56.395,177.831,57.343"/>
	<path style="fill:#7F7F80;" d="M199.224,63.813c-0.191,0.193-0.422,0.288-0.689,0.288c-0.268,0-0.498-0.096-0.69-0.288
		c-0.192-0.193-0.289-0.426-0.289-0.7V50.436c0-0.109-0.048-0.164-0.144-0.164h-3.711c-0.233,0-0.429-0.08-0.587-0.237
		c-0.158-0.158-0.238-0.35-0.238-0.577c0-0.228,0.08-0.424,0.238-0.587c0.158-0.167,0.354-0.249,0.587-0.249h9.688
		c0.219,0,0.412,0.082,0.576,0.249c0.164,0.163,0.249,0.359,0.249,0.587c0,0.227-0.085,0.419-0.249,0.577
		c-0.164,0.158-0.357,0.237-0.576,0.237h-3.711c-0.11,0-0.165,0.054-0.165,0.164v12.677
		C199.514,63.388,199.418,63.621,199.224,63.813"/>
	<path style="fill:#7F7F80;" d="M207.459,63.824c-0.185,0.187-0.41,0.279-0.67,0.279c-0.26,0-0.488-0.092-0.681-0.279
		c-0.192-0.185-0.289-0.416-0.289-0.692v-9.704c0-0.22,0.08-0.407,0.238-0.56c0.157-0.15,0.347-0.227,0.567-0.227
		s0.412,0.076,0.577,0.227c0.165,0.152,0.253,0.34,0.269,0.56l0.101,1.276c0,0.015,0.011,0.02,0.032,0.02
		c0.02,0,0.037-0.005,0.051-0.02c0.413-0.741,0.896-1.319,1.452-1.73c0.557-0.414,1.152-0.619,1.784-0.619h0.391
		c0.248,0.028,0.434,0.152,0.558,0.372c0.081,0.151,0.122,0.308,0.122,0.473c0,0.083-0.007,0.164-0.02,0.249
		c-0.055,0.217-0.18,0.383-0.371,0.493c-0.178,0.11-0.37,0.164-0.577,0.164h-0.083h-0.267c-0.523,0-1.038,0.201-1.547,0.599
		c-0.507,0.399-0.941,1.031-1.298,1.896c-0.041,0.083-0.062,0.179-0.062,0.288v6.245C207.738,63.408,207.645,63.639,207.459,63.824"
		/>
	<path style="fill:#7F7F80;" d="M218.965,64.369c-1.567,0-2.871-0.537-3.915-1.619c-1.044-1.077-1.566-2.537-1.566-4.379
		c0-0.892,0.145-1.723,0.432-2.494c0.289-0.768,0.673-1.407,1.154-1.916c0.481-0.508,1.033-0.903,1.659-1.185
		s1.268-0.423,1.928-0.423c1.427,0,2.541,0.468,3.337,1.402c0.812,0.976,1.218,2.266,1.218,3.874c0,0.331-0.124,0.611-0.371,0.846
		c-0.262,0.233-0.571,0.351-0.928,0.351h-6.346c-0.112,0-0.159,0.047-0.145,0.144c0.083,1.182,0.467,2.121,1.154,2.823
		c0.687,0.7,1.567,1.052,2.638,1.052c0.798,0,1.546-0.186,2.246-0.558c0.165-0.082,0.344-0.098,0.536-0.05
		c0.192,0.05,0.338,0.155,0.434,0.32c0.096,0.177,0.119,0.368,0.07,0.566c-0.045,0.2-0.162,0.347-0.339,0.443
		C221.143,64.102,220.078,64.369,218.965,64.369 M215.401,57.343c0,0.068,0.047,0.103,0.144,0.103h5.832
		c0.097,0,0.145-0.049,0.145-0.145c-0.015-1.098-0.272-1.943-0.774-2.535c-0.5-0.589-1.191-0.885-2.072-0.885
		c-0.809,0-1.525,0.308-2.144,0.927C215.778,55.549,215.401,56.395,215.401,57.343"/>
	<path style="fill:#7F7F80;" d="M228.034,63.824c-0.187,0.187-0.409,0.279-0.671,0.279c-0.261,0-0.487-0.092-0.68-0.279
		c-0.193-0.185-0.289-0.416-0.289-0.692v-9.704c0-0.22,0.08-0.407,0.237-0.56c0.157-0.15,0.346-0.227,0.566-0.227
		c0.22,0,0.412,0.076,0.578,0.227c0.165,0.152,0.262,0.34,0.289,0.56l0.082,0.823c0,0.027,0.013,0.04,0.031,0.04
		c0.022,0,0.037-0.005,0.052-0.02c0.632-0.618,1.25-1.093,1.855-1.423c0.606-0.329,1.264-0.494,1.98-0.494
		c2.333,0,3.503,1.497,3.503,4.494v6.284c0,0.276-0.096,0.507-0.289,0.692c-0.193,0.187-0.419,0.279-0.68,0.279
		c-0.261,0-0.487-0.092-0.68-0.279c-0.193-0.185-0.288-0.416-0.288-0.692v-6.037c0-1.073-0.172-1.848-0.516-2.33
		c-0.343-0.48-0.892-0.721-1.65-0.721c-0.548,0-1.043,0.126-1.483,0.383c-0.44,0.253-0.954,0.668-1.546,1.247
		c-0.082,0.081-0.123,0.171-0.123,0.266v7.193C228.312,63.408,228.218,63.639,228.034,63.824"/>
	<path style="fill:#7F7F80;" d="M243.192,64.369c-1.457,0-2.609-0.525-3.462-1.576c-0.851-1.051-1.278-2.523-1.278-4.422
		c0-1.785,0.487-3.235,1.463-4.348c0.977-1.113,2.143-1.671,3.505-1.671c0.603,0,1.143,0.1,1.618,0.3
		c0.473,0.201,0.973,0.511,1.493,0.938c0.028,0.027,0.052,0.036,0.075,0.018c0.018-0.012,0.029-0.032,0.029-0.06l-0.104-1.834
		v-3.463c0-0.26,0.097-0.484,0.289-0.67c0.192-0.185,0.419-0.279,0.68-0.279c0.263,0,0.488,0.093,0.681,0.279
		c0.191,0.185,0.288,0.409,0.288,0.67v15.066c0,0.22-0.08,0.406-0.236,0.558c-0.159,0.151-0.34,0.226-0.547,0.226
		c-0.235,0-0.432-0.07-0.598-0.216c-0.163-0.145-0.261-0.334-0.289-0.567l-0.085-0.556c0-0.014-0.005-0.02-0.019-0.02
		c-0.014,0-0.028,0.005-0.04,0.02C245.542,63.834,244.389,64.369,243.192,64.369 M243.604,62.763c0.977,0,1.919-0.488,2.825-1.464
		c0.067-0.067,0.101-0.158,0.101-0.267v-5.71c0-0.096-0.034-0.178-0.101-0.247c-0.865-0.744-1.759-1.113-2.682-1.113
		c-0.933,0-1.716,0.412-2.349,1.237c-0.631,0.823-0.946,1.873-0.946,3.151c0,1.403,0.274,2.487,0.822,3.256
		C241.826,62.376,242.601,62.763,243.604,62.763"/>
	<path style="fill:#7F7F80;" d="M255.622,64.369c-1.278,0-2.493-0.37-3.647-1.112c-0.194-0.11-0.302-0.276-0.33-0.494v-0.125
		c0-0.178,0.054-0.337,0.165-0.473c0.123-0.178,0.295-0.282,0.514-0.309c0.22-0.027,0.421,0.021,0.598,0.144
		c0.878,0.591,1.799,0.886,2.76,0.886c0.728,0,1.286-0.169,1.671-0.504c0.384-0.338,0.576-0.767,0.576-1.289
		c0-0.235-0.055-0.446-0.165-0.641c-0.109-0.191-0.233-0.357-0.37-0.493c-0.139-0.137-0.344-0.279-0.618-0.423
		c-0.276-0.142-0.502-0.254-0.682-0.329c-0.178-0.076-0.438-0.175-0.782-0.299c-0.385-0.136-0.711-0.264-0.98-0.381
		c-0.269-0.116-0.57-0.276-0.907-0.474c-0.336-0.2-0.605-0.406-0.804-0.619c-0.198-0.211-0.368-0.481-0.516-0.803
		c-0.143-0.323-0.215-0.67-0.215-1.043c0-0.933,0.358-1.707,1.071-2.316c0.715-0.613,1.677-0.919,2.885-0.919
		c1.003,0,1.979,0.282,2.927,0.845c0.179,0.111,0.286,0.272,0.319,0.486c0.034,0.213-0.015,0.401-0.154,0.566
		c-0.125,0.179-0.292,0.286-0.504,0.319c-0.214,0.035-0.409-0.003-0.588-0.113c-0.66-0.398-1.327-0.598-2-0.598
		c-0.686,0-1.204,0.158-1.557,0.475c-0.348,0.316-0.525,0.706-0.525,1.174c0,0.207,0.044,0.396,0.133,0.567
		c0.092,0.171,0.194,0.311,0.311,0.423c0.118,0.109,0.294,0.225,0.534,0.35c0.24,0.124,0.445,0.22,0.611,0.288
		c0.164,0.069,0.405,0.165,0.72,0.289c0.096,0.028,0.164,0.048,0.207,0.063c0.344,0.136,0.589,0.236,0.742,0.298
		c0.151,0.063,0.378,0.161,0.678,0.298c0.304,0.136,0.532,0.261,0.682,0.37c0.152,0.111,0.334,0.257,0.547,0.444
		c0.212,0.186,0.371,0.37,0.474,0.556c0.102,0.186,0.191,0.409,0.268,0.668c0.077,0.263,0.113,0.545,0.113,0.846
		c0,0.977-0.371,1.787-1.114,2.432C257.931,64.048,256.913,64.369,255.622,64.369"/>
	<path style="fill:#323333;" d="M37.616,36.511c-1.385,0-2.506-1.121-2.506-2.506V20.275c0-1.384,1.121-2.505,2.506-2.505
		s2.507,1.122,2.507,2.505v13.729C40.123,35.39,39.001,36.511,37.616,36.511"/>
	<path style="fill:#323333;" d="M34.778,8.468c0-1.567,1.27-2.838,2.838-2.838s2.836,1.27,2.836,2.838
		c0,1.567-1.269,2.837-2.836,2.837S34.778,10.035,34.778,8.468"/>
	<path style="fill:#323333;" d="M87.909,5.632H72.157c-1.506,0-2.726,1.123-2.726,2.506c0,1.382,1.22,2.505,2.726,2.505h4.858
		v23.362c0,1.385,1.123,2.506,2.507,2.506c1.384,0,2.505-1.121,2.505-2.506V10.643h5.882c1.505,0,2.725-1.123,2.725-2.505
		C90.635,6.754,89.415,5.632,87.909,5.632"/>
	<path style="fill:#323333;" d="M27.242,31.496h-6.824h-2.506c-1.185,0-2.147-0.961-2.147-2.144v-1.795V8.434
		c0-1.385-1.123-2.507-2.506-2.507c-1.384,0-2.507,1.122-2.507,2.507v19.123v1.795c0,3.947,3.211,7.158,7.16,7.158h2.506h6.824
		c1.383,0,2.504-1.121,2.504-2.506C29.746,32.62,28.625,31.496,27.242,31.496"/>
	<path style="fill:#323333;" d="M50.782,12.789c0-1.183,0.963-2.146,2.147-2.146h2.505h7.39c1.384,0,2.507-1.123,2.507-2.506
		c0-1.384-1.123-2.505-2.507-2.505h-7.39h-2.505c-3.948,0-7.16,3.209-7.16,7.157v2.507v18.709c0,1.385,1.122,2.508,2.507,2.508
		c1.384,0,2.506-1.123,2.506-2.508V22.783h9.919c1.385,0,2.506-1.123,2.506-2.505c0-1.387-1.121-2.508-2.506-2.508h-9.919v-2.474
		V12.789z"/>
	<path style="fill:#EE481B;" d="M148.412,5.632h-15.745c-1.504,0-2.724,1.12-2.724,2.503c0,1.385,1.22,2.506,2.724,2.506h4.857
		V33.99c0,1.384,1.12,2.504,2.506,2.504c1.384,0,2.504-1.12,2.504-2.504V10.641h5.878c1.505,0,2.723-1.121,2.723-2.506
		C151.135,6.752,149.917,5.632,148.412,5.632"/>
	<path style="fill:#EE481B;" d="M177.447,36.493c-1.384,0-2.504-1.12-2.504-2.503V20.268c0-1.383,1.12-2.505,2.504-2.505
		c1.384,0,2.504,1.122,2.504,2.505V33.99C179.951,35.374,178.832,36.493,177.447,36.493"/>
	<path style="fill:#EE481B;" d="M174.611,8.466c0-1.565,1.269-2.835,2.836-2.835c1.566,0,2.836,1.27,2.836,2.835
		c0,1.566-1.27,2.836-2.836,2.836C175.88,11.302,174.611,10.032,174.611,8.466"/>
	<path style="fill:#EE481B;" d="M233.824,36.444c-1.036,0-2.006-0.647-2.365-1.681l-6.37-18.283l-5.112,18.137
		c-0.374,1.332-1.759,2.109-3.09,1.733c-1.332-0.377-2.108-1.759-1.732-3.093l7.27-25.795c0.295-1.053,1.243-1.794,2.336-1.827
		c1.091-0.027,2.082,0.65,2.443,1.682l8.987,25.796c0.455,1.307-0.235,2.735-1.541,3.19
		C234.377,36.399,234.099,36.444,233.824,36.444"/>
	<path style="fill:#EE481B;" d="M167.932,36.444c-1.037,0-2.006-0.647-2.365-1.681l-6.371-18.283l-5.113,18.137
		c-0.375,1.332-1.758,2.109-3.089,1.733c-1.332-0.377-2.108-1.759-1.733-3.093l7.271-25.795c0.296-1.053,1.243-1.794,2.335-1.827
		c1.091-0.027,2.083,0.65,2.442,1.682l8.99,25.796c0.455,1.307-0.236,2.735-1.541,3.19
		C168.483,36.399,168.205,36.444,167.932,36.444"/>
	<path style="fill:#EE481B;" d="M214.431,5.731c-1.331-0.376-2.716,0.399-3.093,1.73l-4.661,16.522l-3.91-16.422
		c-0.002-0.008-0.005-0.018-0.008-0.026c-0.014-0.052-0.028-0.101-0.046-0.152c-0.008-0.031-0.018-0.063-0.028-0.092
		c-0.015-0.043-0.033-0.084-0.05-0.125c-0.015-0.037-0.03-0.072-0.048-0.106c-0.015-0.032-0.034-0.064-0.05-0.097
		c-0.022-0.04-0.043-0.082-0.066-0.121c-0.018-0.028-0.038-0.054-0.055-0.082c-0.026-0.038-0.053-0.079-0.082-0.118
		c-0.021-0.03-0.048-0.058-0.07-0.087c-0.027-0.031-0.051-0.065-0.08-0.097c-0.033-0.036-0.07-0.07-0.105-0.106
		c-0.021-0.019-0.04-0.041-0.061-0.06c-0.046-0.041-0.094-0.08-0.14-0.119c-0.016-0.01-0.028-0.023-0.044-0.032
		c-0.05-0.038-0.103-0.075-0.156-0.108c-0.016-0.009-0.028-0.019-0.044-0.028c-0.047-0.029-0.099-0.056-0.148-0.083
		c-0.023-0.011-0.046-0.024-0.069-0.036c-0.043-0.021-0.085-0.037-0.129-0.055c-0.034-0.015-0.07-0.031-0.107-0.042
		c-0.033-0.013-0.067-0.024-0.101-0.034c-0.048-0.015-0.096-0.031-0.144-0.042c-0.009-0.002-0.018-0.006-0.028-0.007
		c-0.021-0.007-0.041-0.008-0.062-0.012c-0.052-0.011-0.105-0.024-0.158-0.03c-0.031-0.005-0.063-0.007-0.095-0.012
		c-0.05-0.005-0.099-0.009-0.148-0.011c-0.038-0.002-0.073-0.002-0.111-0.002c-0.044,0-0.087,0-0.132,0.002
		c-0.043,0.002-0.086,0.006-0.128,0.011c-0.039,0.003-0.076,0.008-0.114,0.014c-0.049,0.005-0.094,0.017-0.142,0.025
		c-0.024,0.006-0.047,0.008-0.072,0.015c-0.009,0.001-0.021,0.005-0.031,0.008c-0.045,0.012-0.088,0.024-0.132,0.039
		c-0.037,0.012-0.076,0.023-0.112,0.036c-0.034,0.011-0.067,0.026-0.099,0.04c-0.044,0.019-0.091,0.036-0.134,0.059
		c-0.021,0.009-0.042,0.021-0.063,0.033c-0.052,0.028-0.103,0.054-0.154,0.084c-0.013,0.009-0.027,0.018-0.04,0.027
		c-0.053,0.035-0.106,0.071-0.158,0.109c-0.014,0.011-0.028,0.022-0.043,0.034c-0.047,0.037-0.095,0.075-0.139,0.116
		c-0.022,0.02-0.042,0.043-0.063,0.064c-0.036,0.034-0.07,0.067-0.105,0.102c-0.027,0.032-0.055,0.067-0.082,0.102
		c-0.024,0.027-0.047,0.053-0.067,0.082c-0.03,0.04-0.057,0.08-0.083,0.123c-0.018,0.026-0.035,0.05-0.051,0.077
		c-0.025,0.041-0.047,0.082-0.069,0.125c-0.016,0.03-0.033,0.06-0.048,0.091c-0.018,0.036-0.033,0.073-0.049,0.111
		c-0.017,0.038-0.034,0.08-0.048,0.122c-0.012,0.029-0.022,0.06-0.031,0.092c-0.016,0.051-0.031,0.1-0.044,0.152
		c-0.003,0.008-0.005,0.018-0.006,0.026l-3.705,15.56l-3.705-15.56c-0.321-1.346-1.672-2.178-3.017-1.855
		c-1.346,0.32-2.178,1.669-1.856,3.017l6.141,25.796c0.27,1.127,1.277,1.925,2.438,1.925c1.159,0,2.168-0.797,2.437-1.925
		l3.704-15.56l3.706,15.56c0.264,1.109,1.244,1.901,2.385,1.925h0.051c1.119,0,2.106-0.744,2.411-1.825l7.279-25.797
		C216.538,7.491,215.762,6.107,214.431,5.731"/>
	<path style="fill:#EE481B;" d="M257.026,36.444c-0.898,0-1.752-0.486-2.197-1.305l-9.395-17.189v15.988
		c0,1.384-1.122,2.505-2.506,2.505c-1.382,0-2.504-1.121-2.504-2.505V8.142c0-1.146,0.774-2.145,1.885-2.428
		c1.11-0.282,2.268,0.22,2.818,1.227l9.394,17.191V8.142c0-1.384,1.121-2.506,2.505-2.506c1.384,0,2.505,1.122,2.505,2.506v25.796
		c0,1.145-0.775,2.143-1.885,2.428C257.44,36.419,257.232,36.444,257.026,36.444"/>
	<path style="fill:#7F7F80;" d="M106.503,16.127c-2.73,0-4.944,2.214-4.944,4.944c0,2.731,2.213,4.944,4.944,4.944
		c2.73,0,4.943-2.212,4.943-4.944C111.446,18.341,109.233,16.127,106.503,16.127 M106.503,23.699c-1.451,0-2.629-1.176-2.629-2.628
		c0-1.453,1.178-2.629,2.629-2.629c1.45,0,2.627,1.176,2.627,2.629C109.13,22.522,107.954,23.699,106.503,23.699"/>
	<path style="fill:#EE481B;" d="M114.075,16.127c-2.729,0-4.943,2.214-4.943,4.944c0,2.731,2.214,4.944,4.943,4.944
		c2.73,0,4.943-2.212,4.943-4.944C119.018,18.341,116.805,16.127,114.075,16.127 M114.075,23.699c-1.451,0-2.628-1.176-2.628-2.628
		c0-1.453,1.177-2.629,2.628-2.629c1.451,0,2.629,1.176,2.629,2.629C116.704,22.522,115.526,23.699,114.075,23.699"/>
</g>
</svg>
